<?xml version="1.0" standalone="no"?>
<!DOCTYPE svg PUBLIC "-//W3C//DTD SVG 20010904//EN"
 "http://www.w3.org/TR/2001/REC-SVG-20010904/DTD/svg10.dtd">
<svg version="1.0" xmlns="http://www.w3.org/2000/svg"
 width="512.000000pt" height="512.000000pt" viewBox="0 0 512.000000 512.000000"
 preserveAspectRatio="xMidYMid meet">

<g transform="translate(0.000000,512.000000) scale(0.100000,-0.100000)"
fill="#000000" stroke="none">
<path d="M2405 4385 c-5 -2 -31 -6 -57 -10 l-48 -6 0 -44 c0 -84 -20 -147 -57
-182 -40 -38 -34 -42 20 -13 20 11 37 16 37 11 0 -5 -23 -20 -50 -32 -34 -15
-49 -27 -45 -37 3 -7 5 -18 5 -23 0 -6 4 -7 10 -4 6 4 7 -1 3 -11 -5 -13 -3
-15 7 -9 8 5 11 4 6 -3 -8 -14 3 -62 15 -62 4 0 18 10 30 23 12 12 18 15 14 7
-8 -13 -7 -13 8 -1 9 7 17 21 17 29 0 13 3 14 13 4 8 -9 12 -51 12 -135 0 -99
-3 -128 -18 -155 -22 -41 -33 -37 -13 4 14 29 33 134 22 123 -3 -3 -13 -23
-21 -45 l-15 -39 6 40 c4 30 3 36 -5 25 -6 -8 -11 -23 -11 -32 0 -9 -4 -19 -8
-22 -5 -3 -7 23 -5 57 l2 62 -13 -62 c-7 -35 -15 -65 -17 -68 -3 -2 -4 26 -3
63 3 66 1 62 -13 -28 -6 -37 -8 -25 -14 70 -3 67 -14 136 -24 166 l-17 52 -56
4 c-56 5 -57 6 -127 83 l-72 77 -61 -31 c-34 -17 -62 -36 -62 -41 0 -5 6 -34
14 -63 21 -80 5 -140 -47 -180 -90 -68 -135 -72 -236 -21 l-72 36 -47 -44
c-26 -23 -47 -45 -46 -48 0 -3 9 -23 19 -45 10 -22 20 -66 23 -97 4 -49 0 -64
-23 -104 -16 -26 -46 -68 -69 -92 -40 -44 -41 -44 -96 -40 -30 3 -75 14 -99
26 -25 12 -46 22 -47 22 -2 0 -23 -26 -48 -59 l-45 -58 36 -34 c43 -41 113
-146 113 -169 0 -10 -9 -37 -20 -62 -18 -42 -21 -101 -7 -126 9 -14 -22 -5
-47 14 -11 7 -17 17 -13 20 4 4 13 1 22 -6 9 -7 18 -11 20 -8 3 3 -2 11 -10
18 -15 13 -229 35 -245 25 -8 -5 -45 -124 -39 -128 2 -2 36 -25 76 -50 39 -25
77 -56 84 -69 7 -12 13 -49 13 -81 1 -71 -15 -88 -105 -115 l-59 -17 -2 -45
-1 -45 -7 50 c-5 41 -7 46 -13 25 -4 -14 -8 -47 -10 -75 -3 -40 -4 -37 -5 20
-2 66 -3 71 -26 73 -21 1 -24 -3 -30 -51 -10 -88 -8 -107 12 -107 42 0 126
-34 158 -63 28 -26 39 -47 53 -106 l18 -73 -71 -34 c-39 -19 -86 -34 -105 -34
l-34 0 6 -91 c3 -50 8 -94 12 -97 8 -8 198 27 209 38 7 7 2 10 -11 10 -12 0
-25 5 -28 10 -9 15 16 12 49 -5 25 -13 36 -13 90 -1 33 8 120 26 191 41 250
51 450 102 473 120 1 1 -14 36 -33 77 -57 120 -65 226 -21 293 24 36 103 55
191 46 l70 -8 -65 -3 -65 -3 50 -7 c28 -4 41 -8 31 -8 -18 -2 -18 -4 4 -24 14
-13 28 -22 33 -20 5 1 6 -2 2 -8 -9 -14 14 -42 28 -33 6 3 7 1 3 -6 -4 -6 -1
-22 7 -35 9 -12 21 -51 27 -84 9 -43 17 -62 27 -62 12 0 14 8 9 33 -12 69 -17
224 -8 262 8 32 9 19 6 -60 -3 -55 -1 -113 5 -130 7 -24 8 -17 4 32 -7 79 13
242 39 311 11 29 22 52 24 50 1 -2 -6 -37 -17 -78 -11 -42 -22 -126 -26 -190
-5 -111 -4 -119 27 -210 17 -52 44 -114 59 -137 31 -49 117 -125 172 -154 51
-25 63 -24 19 2 -54 33 -167 138 -190 176 -38 65 -63 189 -57 288 5 79 32 203
42 193 2 -2 -4 -32 -12 -68 -9 -36 -16 -105 -17 -155 -1 -177 75 -317 228
-417 33 -21 53 -38 45 -39 -8 0 10 -9 39 -20 29 -12 51 -23 49 -25 -7 -7 -135
44 -170 67 -18 12 -44 34 -59 47 -16 14 -28 21 -28 16 0 -26 95 -91 174 -120
58 -21 88 -45 73 -60 -4 -4 -15 0 -24 8 -10 9 -38 26 -63 38 -61 31 -146 95
-166 125 -9 14 -20 22 -25 20 -9 -6 -63 63 -86 111 -11 23 -21 30 -34 27 -11
-3 -19 0 -19 6 0 6 8 11 18 12 11 1 9 4 -8 9 -17 5 -19 8 -7 9 16 1 26 21 10
21 -32 -1 -32 -19 3 -123 l36 -107 38 0 c33 0 43 -6 84 -54 25 -30 62 -64 81
-76 38 -24 46 -50 15 -50 -11 0 -58 -38 -111 -90 -135 -131 -169 -141 -286
-83 l-51 25 -47 -33 c-38 -28 -43 -34 -28 -40 10 -4 29 -19 43 -35 27 -30 10
-24 -29 10 l-24 21 23 -40 23 -40 -26 24 c-15 13 -29 32 -33 43 -3 10 -10 18
-16 18 -5 0 -1 -16 11 -35 16 -28 18 -35 5 -35 -13 0 -24 17 -38 62 -4 15 -18
9 -87 -37 -44 -30 -90 -57 -100 -60 -27 -9 -24 -19 18 -75 37 -50 55 -60 33
-20 -6 12 -9 24 -6 27 3 3 10 -7 16 -22 10 -26 12 -27 28 -12 23 21 97 47 134
47 37 0 75 -20 113 -60 21 -21 26 -33 18 -38 -12 -7 -123 -178 -126 -194 -1
-4 23 -23 53 -41 30 -19 54 -39 53 -46 -6 -24 26 -9 77 38 30 28 79 62 108 77
l55 28 38 -22 c61 -35 83 -30 104 24 23 61 27 52 8 -19 -14 -47 -14 -64 -5
-91 16 -44 16 -116 0 -117 -7 0 -4 -5 7 -10 14 -6 -6 -8 -65 -7 -47 0 -166 0
-265 -2 l-180 -4 252 -6 c191 -4 256 -9 265 -19 11 -11 -16 -12 -159 -8 -104
3 -173 2 -173 -4 0 -5 6 -9 13 -9 6 -1 1 -7 -13 -15 -22 -13 18 -14 327 -11
194 1 350 -1 347 -6 -3 -4 12 -8 33 -9 21 -1 49 -4 63 -9 14 -4 -139 -6 -340
-5 -355 3 -359 3 -140 -6 124 -5 266 -13 315 -18 84 -9 80 -9 -50 -5 -337 9
-521 17 -530 23 -15 9 -385 1 -385 -9 0 -5 84 -9 188 -9 103 0 241 -6 307 -13
82 -9 274 -13 608 -12 300 0 487 -3 487 -9 0 -5 14 -7 33 -3 17 4 106 10 197
13 302 9 290 18 -30 21 -173 2 -349 5 -390 6 -41 1 -109 3 -150 4 -69 2 -76 4
-76 23 0 20 3 21 159 15 88 -3 165 -10 171 -15 6 -5 43 -12 81 -16 45 -4 65
-3 56 3 -11 8 -11 11 0 18 10 6 0 11 -31 15 l-45 6 50 3 c28 1 93 6 145 10 76
6 66 7 -52 3 -98 -3 -148 -1 -148 6 0 7 68 9 198 8 108 -1 180 -1 159 1 -20 2
-35 7 -32 13 4 5 -53 8 -144 6 -82 -1 -147 1 -143 5 4 4 53 12 107 16 55 5 81
10 57 11 -26 0 -41 5 -37 11 9 14 82 12 88 -2 4 -10 6 -10 6 0 1 18 61 16 61
-3 0 -11 10 -15 38 -14 36 1 36 2 7 8 -16 4 -29 12 -28 19 2 9 -21 12 -81 12
l-85 0 -6 43 c-4 23 -5 60 -3 82 3 39 5 41 61 63 l58 23 34 -21 c18 -11 47
-35 63 -53 41 -46 65 -57 119 -56 l48 2 -40 6 -40 6 48 28 c26 15 47 30 47 32
0 3 -16 46 -36 96 -43 105 -43 104 54 139 l63 23 67 -47 c37 -25 72 -46 79
-46 6 0 30 23 53 50 l42 50 -29 46 c-15 25 -40 66 -55 91 l-26 46 35 43 c20
23 48 51 63 62 l27 20 67 -39 c37 -21 71 -39 75 -39 5 0 25 25 45 56 l36 56
-49 54 c-56 61 -101 145 -94 174 3 11 16 31 30 46 23 25 28 26 86 20 34 -3 76
-9 92 -12 30 -6 31 -5 44 53 7 32 15 63 17 69 3 6 -23 28 -56 48 -75 47 -110
95 -110 154 0 24 5 52 11 64 16 29 86 58 147 58 l52 0 0 69 0 70 -52 15 c-29
8 -64 23 -77 32 -29 21 -81 102 -81 126 0 31 84 107 133 120 l44 11 -15 60
-15 59 -44 -6 c-54 -7 -126 8 -164 34 -37 27 -58 25 -105 -9 -40 -30 -122 -57
-146 -48 -7 2 5 8 27 12 52 10 135 52 135 68 0 7 9 23 20 35 11 12 20 31 20
42 0 12 4 19 10 15 6 -4 6 -15 0 -31 -24 -63 -3 -58 44 10 25 37 52 61 84 77
26 13 49 25 51 26 6 4 -53 113 -62 113 -4 0 -24 -7 -44 -15 -19 -8 -55 -15
-80 -15 -48 0 -113 23 -113 40 0 6 -12 15 -27 21 -25 9 -31 6 -77 -47 -47 -53
-95 -84 -131 -84 -10 0 -13 5 -9 13 5 6 -8 0 -27 -14 -44 -34 -81 -52 -164
-84 l-67 -25 6 26 c6 22 4 25 -9 20 -9 -3 -20 -6 -24 -6 -5 0 -9 -12 -10 -27
-5 -91 -5 -120 2 -139 7 -19 2 -23 -37 -34 -59 -16 -81 -7 -32 14 48 20 41 31
-11 17 -59 -17 -62 -12 -10 15 58 30 57 40 -3 19 -60 -21 -72 -19 -24 6 23 11
50 30 60 41 15 17 7 15 -39 -11 -76 -43 -85 -33 -13 13 31 20 56 38 56 41 0 6
-35 -12 -95 -51 l-40 -25 40 35 c56 50 102 71 121 55 8 -6 18 -9 22 -5 4 4 -4
17 -18 29 -16 13 -18 18 -7 14 19 -7 67 11 67 25 0 4 -8 8 -17 8 -12 1 -5 8
17 21 l35 20 -35 -6 c-34 -6 -34 -5 -15 10 11 9 51 32 88 51 37 19 65 39 62
44 -3 5 0 7 7 5 17 -7 104 50 125 82 9 13 19 38 22 56 5 24 13 33 31 35 22 2
23 1 9 -10 -9 -7 -29 -38 -44 -68 -15 -30 -48 -75 -74 -99 -25 -25 -37 -38
-26 -31 50 34 89 79 116 133 16 31 33 57 38 57 19 0 -55 -118 -108 -172 -62
-65 -63 -78 -1 -22 22 20 63 74 91 120 28 46 53 84 55 84 3 0 -11 -30 -30 -67
-41 -76 -41 -98 -1 -29 15 25 29 46 31 46 7 0 -35 -78 -46 -85 -5 -3 -10 -11
-10 -17 0 -7 4 -7 13 1 8 6 16 8 19 5 3 -3 8 7 12 21 7 27 46 97 46 80 -1 -20
-75 -160 -85 -160 -6 0 -23 -10 -39 -22 -44 -35 -7 -41 49 -8 45 26 75 63 110
138 18 39 45 67 30 31 -11 -26 -19 -74 -12 -74 4 0 14 17 24 37 10 21 39 60
66 88 l48 50 -17 30 c-38 72 -33 71 -124 25 l-83 -42 -45 18 c-54 20 -92 58
-92 89 0 13 17 57 38 99 l39 77 -49 40 -48 41 -36 -28 c-122 -100 -116 -96
-160 -91 -23 2 -58 14 -78 26 -34 21 -36 26 -36 74 0 28 7 77 16 109 9 32 15
61 12 63 -2 2 -29 16 -61 29 l-56 25 -46 -57 c-85 -105 -126 -120 -229 -82
-69 26 -86 58 -86 163 l0 76 -57 6 c-32 4 -64 7 -72 8 -15 2 -20 -6 -57 -90
-14 -34 -34 -69 -43 -77 -37 -34 -164 -37 -196 -5 -9 8 -30 51 -48 94 -30 74
-45 90 -72 80z m33 -51 c-11 -11 -108 -32 -108 -23 0 5 12 11 28 15 15 3 32 7
37 9 17 6 49 5 43 -1z m465 -1 c-7 -2 -19 -2 -25 0 -7 3 -2 5 12 5 14 0 19 -2
13 -5z m0 -30 c-18 -2 -48 -2 -65 0 -18 2 -4 4 32 4 36 0 50 -2 33 -4z m-5
-20 c-10 -2 -26 -2 -35 0 -10 3 -2 5 17 5 19 0 27 -2 18 -5z m-968 -86 c13 4
13 3 1 -5 -8 -6 -21 -8 -29 -4 -9 3 -13 1 -9 -5 11 -17 -23 -24 -44 -9 -17 11
-18 14 -4 19 8 4 22 3 32 0 11 -5 14 -3 8 6 -6 10 -3 11 11 3 11 -5 26 -7 34
-5z m489 -13 c-6 -7 -16 -11 -21 -8 -6 4 -8 -3 -4 -17 6 -21 6 -22 -4 -6 -9
15 -8 22 5 37 20 22 43 16 24 -6z m64 19 c-7 -2 -21 -2 -30 0 -10 3 -4 5 12 5
17 0 24 -2 18 -5z m328 -97 c5 -6 10 -28 10 -50 1 -40 2 -40 10 -11 7 25 7 23
5 -15 -2 -25 -18 -99 -35 -165 -34 -130 -58 -166 -109 -164 -25 1 -24 2 8 12
l35 11 -40 7 c-35 5 -36 6 -10 8 17 1 37 6 45 11 11 7 2 9 -30 5 l-45 -6 31
15 c32 14 53 36 35 36 -5 0 -13 -4 -16 -10 -3 -5 -14 -10 -23 -10 -13 0 -12 3
6 16 12 8 22 20 22 26 0 7 -6 4 -13 -7 -8 -10 -19 -15 -25 -11 -5 3 -13 1 -15
-4 -4 -7 -5 -6 -3 0 1 7 5 11 10 10 14 -3 23 18 58 129 17 57 34 97 37 90 3
-8 11 4 18 26 12 39 12 38 6 -25 -3 -36 -12 -87 -19 -115 -18 -70 -9 -69 13 1
13 43 18 91 18 179 -1 66 1 98 3 70 2 -27 7 -54 13 -59z m529 93 c-12 -9 -11
-10 8 -6 12 3 20 1 16 -4 -3 -5 0 -9 7 -9 7 0 10 -2 8 -4 -3 -3 -25 0 -49 6
-41 11 -43 13 -20 19 37 11 47 10 30 -2z m-972 -31 c-21 -64 -21 -64 -25 -42
-5 24 13 74 26 74 5 0 5 -13 -1 -32z m133 0 c6 -13 23 -33 37 -45 15 -13 23
-23 17 -23 -12 1 -39 24 -74 63 -20 22 -21 27 -8 27 9 0 21 -10 28 -22z m415
7 c-19 -14 -19 -15 7 -15 28 0 32 -10 17 -45 -8 -19 -9 -19 -9 1 -1 17 -9 23
-36 28 -20 4 -40 4 -45 1 -11 -7 -14 28 -3 38 3 4 25 7 47 7 38 -1 40 -2 22
-15z m-961 -5 c-3 -5 -12 -10 -18 -10 -7 0 -6 4 3 10 19 12 23 12 15 0z m641
-11 c44 -11 60 -28 27 -30 -14 0 -13 -2 5 -9 19 -8 32 -30 17 -30 -12 0 -96
43 -101 52 -4 6 3 5 14 -1 11 -6 27 -11 34 -11 7 0 -5 9 -27 19 -46 22 -34 26
31 10z m101 -5 c-3 -3 -12 -4 -19 -1 -8 3 -5 6 6 6 11 1 17 -2 13 -5z m-318
-36 c-1 -20 10 -56 30 -92 34 -64 42 -56 11 12 -25 55 -5 52 28 -4 22 -36 23
-32 5 13 -4 11 -3 14 5 9 8 -5 10 3 7 26 -5 31 -4 30 15 -12 63 -134 65 -317
5 -340 -45 -17 -95 17 -57 39 14 8 14 10 2 11 -12 0 -15 18 -15 98 0 91 -2
103 -32 160 -17 34 -27 62 -22 62 5 0 9 11 9 25 0 14 2 25 5 25 3 0 5 -15 4
-32z m314 15 c-7 -2 -19 -2 -25 0 -7 3 -2 5 12 5 14 0 19 -2 13 -5z m-703 -7
c0 -2 -8 -10 -17 -17 -16 -13 -17 -12 -4 4 13 16 21 21 21 13z m1109 -26 c24
0 24 0 5 -16 -18 -15 -18 -15 6 -11 14 2 32 7 40 9 8 3 11 3 7 0 -4 -2 0 -11
10 -19 10 -8 13 -12 6 -9 -6 4 -30 3 -53 0 -36 -6 -40 -9 -33 -28 11 -32 5
-129 -12 -177 -23 -64 -83 -167 -105 -179 -29 -15 -46 -12 -24 5 18 14 18 14
-11 15 -16 1 -39 5 -50 10 -16 7 -12 9 20 9 43 1 52 6 75 36 15 19 14 19 -10
2 -14 -10 -42 -17 -65 -16 l-40 1 34 8 c18 4 43 18 55 30 l21 23 -25 -17 c-13
-9 -34 -16 -45 -16 -20 1 -20 1 0 12 71 39 141 169 150 278 0 9 5 22 10 29 4
8 -13 0 -38 -18 -33 -22 -45 -27 -40 -15 4 12 3 15 -5 10 -8 -5 -10 -2 -6 9 4
8 2 21 -2 28 -5 7 -2 5 8 -5 24 -26 33 -22 14 7 -9 13 -16 26 -16 29 0 2 21
-2 47 -10 25 -8 58 -14 72 -14z m-1169 5 c-7 -9 -15 -13 -19 -10 -3 3 1 10 9
15 21 14 24 12 10 -5z m80 11 c0 -2 -8 -10 -17 -17 -16 -13 -17 -12 -4 4 13
16 21 21 21 13z m-10 -59 c-16 -25 -30 -49 -30 -54 0 -13 50 -59 50 -47 0 5
16 -18 35 -51 43 -74 45 -65 4 18 -22 46 -25 56 -9 37 47 -57 70 -117 69 -182
-1 -35 -5 -74 -10 -88 -6 -18 -7 -11 -3 24 7 64 -9 52 -26 -20 -10 -42 -16
-52 -21 -38 -4 11 -8 33 -8 49 -2 64 -32 151 -75 213 -39 56 -43 67 -36 98 9
39 4 45 -10 12 -8 -22 -9 -22 -9 -2 -1 11 11 31 27 45 15 13 21 17 15 9 -26
-29 -12 -31 25 -2 20 17 38 29 40 27 2 -1 -11 -23 -28 -48z m685 -25 c-1 -61
-23 -180 -35 -187 -4 -3 -3 17 2 43 4 26 9 86 11 134 2 98 22 107 22 10z
m-424 59 c-11 -7 -7 -10 15 -14 21 -3 16 -4 -16 -5 -42 -1 -44 0 -26 13 11 8
25 15 30 15 6 0 5 -4 -3 -9z m189 -24 c0 -5 -4 -5 -10 -2 -5 3 -10 14 -10 23
0 15 2 15 10 2 5 -8 10 -19 10 -23z m-365 -7 c4 0 1 8 -6 17 -13 16 -12 16 14
0 15 -10 32 -15 37 -12 13 8 12 -5 -3 -33 -13 -22 -13 -22 -52 20 -22 23 -31
35 -19 25 11 -9 24 -17 29 -17z m85 23 c0 -10 -20 -40 -20 -31 0 3 -3 13 -6
22 -4 11 -1 16 10 16 9 0 16 -3 16 -7z m695 -90 c-10 -55 -18 -30 -9 29 5 34
9 44 12 29 2 -13 1 -39 -3 -58z m32 45 c-3 -7 -5 -2 -5 12 0 14 2 19 5 13 2
-7 2 -19 0 -25z m346 -65 c0 -58 2 -69 7 -43 l7 35 2 -45 3 -45 12 40 c9 30
13 36 19 23 3 -10 0 -36 -8 -59 -25 -70 -12 -53 31 40 l41 89 -38 11 c-21 6
-41 16 -44 21 -3 5 8 4 25 -1 17 -6 37 -8 46 -5 10 4 13 2 8 -6 -5 -8 -2 -9 9
-5 23 9 22 -14 -2 -44 -10 -13 -39 -68 -64 -122 -55 -117 -133 -244 -158 -257
-23 -13 -42 -13 -34 0 4 6 10 8 14 5 5 -2 16 4 26 15 17 19 17 19 -16 10 -56
-16 -67 -11 -21 10 23 10 42 22 42 25 0 3 -5 3 -10 0 -6 -4 -25 -10 -43 -15
-26 -7 -29 -7 -14 3 52 33 54 39 12 32 l-40 -6 62 43 c34 24 63 47 63 51 0 5
-12 0 -27 -11 -39 -27 -96 -56 -89 -44 3 5 30 26 61 47 30 21 53 40 51 43 -3
2 -20 -8 -39 -22 -57 -44 -55 -29 3 25 35 33 42 42 20 27 -61 -43 -66 -43 -20
0 25 23 48 41 53 42 4 0 7 5 7 11 0 6 -24 -6 -52 -27 l-53 -37 68 64 c67 64
67 65 67 118 0 30 3 52 6 48 4 -3 7 -41 7 -84z m-983 2 c0 -5 -5 -3 -10 5 -5
8 -10 20 -10 25 0 6 5 3 10 -5 5 -8 10 -19 10 -25z m627 13 c-3 -8 -6 -5 -6 6
-1 11 2 17 5 13 3 -3 4 -12 1 -19z m877 -21 c4 4 4 -1 0 -10 -6 -16 -9 -16
-35 9 -37 35 -37 41 0 15 15 -11 31 -17 35 -14z m-461 8 c-3 -9 -8 -14 -10
-11 -3 3 -2 9 2 15 9 16 15 13 8 -4z m-1383 -31 c0 -16 -18 -18 -39 -5 -12 8
-13 12 -2 25 11 12 17 14 27 5 8 -6 14 -18 14 -25z m1492 19 c9 -10 14 -26 13
-36 -4 -21 27 -41 42 -26 6 6 14 5 22 -5 11 -12 10 -24 -5 -61 -23 -63 -36
-66 -32 -10 3 44 0 50 -40 91 -24 24 -41 48 -37 54 9 15 20 13 37 -7z m-1307
-44 c15 -28 25 -54 23 -58 -2 -5 -15 18 -30 50 -33 72 -28 78 7 8z m-193 -16
c12 -15 11 -15 -9 -5 -12 7 -50 15 -84 19 l-62 6 34 17 c32 17 35 17 70 -2 21
-11 44 -27 51 -35z m783 -8 c-8 -32 -18 -61 -21 -64 -4 -3 -4 3 -1 14 25 97
30 115 34 112 2 -2 -3 -30 -12 -62z m-1235 42 c0 -2 -15 -16 -32 -33 l-33 -29
29 33 c28 30 36 37 36 29z m306 -98 c10 -11 30 -19 48 -19 l31 1 -33 29 c-18
17 -29 30 -24 30 14 0 109 -104 126 -138 41 -81 26 -191 -29 -212 -44 -17 -51
-12 -63 48 -7 31 -26 86 -43 122 -17 36 -35 76 -39 90 -4 14 -11 34 -16 45 -7
20 -7 20 14 1 12 -11 22 -15 22 -9 0 5 -9 18 -19 27 -15 13 -20 14 -24 4 -3
-8 -6 -6 -6 6 -1 15 -4 16 -16 6 -9 -7 -18 -10 -22 -6 -3 3 -4 7 -2 9 62 37
64 37 71 10 4 -14 15 -34 24 -44z m1219 41 c-11 -12 -20 -29 -21 -38 -2 -9
-16 -27 -31 -39 -42 -34 -49 -28 -9 8 20 17 34 34 33 37 -3 9 37 61 42 56 2
-2 -4 -13 -14 -24z m575 26 c0 -15 -24 -66 -31 -66 -5 0 -18 -20 -29 -45 -22
-52 -96 -134 -158 -177 -41 -28 -94 -40 -110 -23 -4 4 2 6 14 3 29 -7 72 17
150 86 55 50 73 73 105 143 21 46 43 83 49 83 5 0 10 -2 10 -4z m-1702 -32
c17 -12 27 -12 45 -3 12 6 19 8 15 4 -4 -5 -2 -15 4 -24 10 -13 10 -14 -2 -3
-24 21 -34 13 -13 -10 24 -26 43 -61 43 -78 0 -6 -15 8 -33 32 -18 24 -55 58
-82 77 -48 32 -28 37 23 5z m27 16 c13 -6 15 -9 5 -9 -8 0 -22 4 -30 9 -18 12
-2 12 25 0z m1689 -16 c-5 -19 -3 -25 4 -20 14 8 -20 -74 -50 -122 -11 -18
-18 -35 -15 -38 3 -3 20 19 38 50 38 64 50 68 19 6 -12 -23 -17 -39 -12 -36 6
3 13 -1 16 -10 3 -8 2 -13 -3 -10 -9 6 -35 -43 -27 -51 2 -3 17 10 33 28 15
17 34 38 41 45 7 8 10 19 6 25 -5 8 -3 9 6 4 9 -5 10 -2 6 12 -3 11 1 27 10
39 14 18 15 18 4 -4 -14 -29 -6 -41 9 -14 6 11 8 28 4 38 -5 13 -3 16 10 11
11 -4 22 2 32 16 8 12 15 16 15 10 0 -16 -63 -108 -121 -174 -46 -53 -172
-167 -140 -126 7 9 9 17 3 17 -11 0 -29 -20 -32 -35 -1 -5 -4 -12 -7 -15 -4
-3 -3 1 1 8 9 16 -6 16 -25 0 -7 -7 6 9 31 37 46 51 28 39 -67 -48 -29 -26
-60 -47 -69 -47 -16 0 -16 2 2 15 18 13 16 14 -26 16 -34 2 -38 3 -15 6 33 5
59 23 35 24 -10 0 -7 4 5 9 17 7 16 9 -10 9 -29 1 -27 3 23 32 79 45 180 154
226 243 22 42 41 76 43 76 2 0 0 -12 -3 -26z m-2114 2 c0 -2 -8 -10 -17 -17
-16 -13 -17 -12 -4 4 13 16 21 21 21 13z m331 -33 c13 -16 12 -17 -3 -4 -17
13 -22 21 -14 21 2 0 10 -8 17 -17z m-154 1 c-3 -3 -12 -4 -19 -1 -8 3 -5 6 6
6 11 1 17 -2 13 -5z m77 -18 c3 -13 9 -32 12 -43 4 -11 -6 -5 -25 15 -31 33
-33 52 -6 52 7 0 16 -11 19 -24z m423 -38 c-2 -13 -4 -5 -4 17 -1 22 1 32 4
23 2 -10 2 -28 0 -40z m-627 38 c0 -2 -8 -10 -17 -17 -16 -13 -17 -12 -4 4 13
16 21 21 21 13z m9 -26 c-13 -16 -25 -28 -27 -25 -5 5 37 55 45 55 2 0 -6 -13
-18 -30z m2091 -40 c-13 -27 -27 -47 -32 -44 -13 8 -10 19 12 44 11 12 22 31
26 42 3 11 8 17 12 14 3 -3 -5 -28 -18 -56z m115 3 l18 -28 -21 19 c-12 11
-22 23 -22 28 0 14 7 9 25 -19z m-2120 -4 c11 -16 2 -17 -25 -2 -24 12 -24 13
-3 13 12 0 25 -5 28 -11z m-105 -49 c15 -37 11 -44 -22 -31 -25 10 -33 37 -16
58 13 17 23 10 38 -27z m2250 -27 c0 -7 -2 -13 -4 -13 -7 0 -46 66 -46 76 1
14 50 -49 50 -63z m-361 17 c-24 -21 -48 -39 -54 -39 -5 0 10 18 35 39 25 22
49 40 54 40 5 0 -11 -18 -35 -40z m376 10 c10 -11 16 -20 13 -20 -3 0 -13 9
-23 20 -10 11 -16 20 -13 20 3 0 13 -9 23 -20z m-2128 -15 c76 -25 161 -65
105 -49 -99 27 -204 54 -208 54 -3 0 -2 5 1 10 9 14 14 13 102 -15z m2393 -1
c0 4 5 4 10 1 6 -4 7 -11 4 -17 -5 -7 -13 -4 -24 10 -10 12 -21 18 -25 14 -5
-4 -5 -1 0 7 7 12 10 11 22 -4 7 -11 13 -15 13 -11z m-2298 -69 c45 -19 19
-18 -76 4 -46 11 -87 27 -99 40 -20 20 -18 20 60 -4 45 -14 96 -32 115 -40z
m2238 40 c5 3 14 -5 20 -17 11 -22 11 -23 -5 -3 -16 19 -16 19 -10 -7 10 -40
-2 -35 -20 8 -17 42 -19 57 -4 31 6 -9 14 -15 19 -12z m-2473 -11 c-5 -5 -57
13 -57 20 0 3 14 0 31 -6 16 -6 28 -12 26 -14z m460 -6 c-3 -8 -6 -5 -6 6 -1
11 2 17 5 13 3 -3 4 -12 1 -19z m591 -36 c-12 -30 -28 -43 -28 -22 0 6 -7 10
-17 10 -14 0 -14 -2 2 -20 12 -14 15 -24 9 -30 -14 -14 -153 -18 -153 -5 0 6
11 9 25 7 23 -3 24 -2 12 17 -14 23 -6 36 18 27 10 -4 14 -13 11 -26 -4 -17 0
-20 26 -20 24 0 28 3 17 10 -9 6 -10 10 -3 10 6 0 15 -4 18 -10 3 -5 11 -10
16 -10 6 0 -2 16 -17 35 l-26 35 41 0 c40 0 41 1 35 28 -6 25 -5 26 10 12 13
-13 14 -21 4 -48z m142 37 c0 -11 -4 -18 -10 -14 -5 3 -7 12 -3 20 7 21 13 19
13 -6z m630 -3 c0 -2 -8 -10 -17 -17 -16 -13 -17 -12 -4 4 13 16 21 21 21 13z
m-1824 -21 c17 -13 16 -14 -15 -5 -41 11 -51 20 -25 20 11 0 29 -7 40 -15z
m1334 -1 c0 -8 -4 -12 -10 -9 -5 3 -10 10 -10 16 0 5 5 9 10 9 6 0 10 -7 10
-16z m-1115 -25 c33 -10 53 -18 45 -18 -33 -1 -152 27 -163 38 -14 14 26 7
118 -20z m-216 -1 c37 -13 19 -20 -20 -7 -41 14 -67 35 -29 24 14 -4 36 -12
49 -17z m747 -6 c-18 -18 -31 -10 -23 12 4 10 13 13 22 9 15 -5 15 -7 1 -21z
m79 17 c11 -17 -1 -21 -15 -4 -8 9 -8 15 -2 15 6 0 14 -5 17 -11z m327 -6 c10
-9 33 -18 51 -19 30 -3 31 -3 13 11 -20 15 -20 15 0 15 48 -1 163 -33 230 -65
41 -19 74 -37 74 -40 0 -3 -9 -1 -21 5 -36 20 -32 3 5 -20 49 -30 45 -35 -6
-9 -55 28 -146 59 -172 59 -20 0 -20 -1 4 -20 22 -16 114 -56 175 -76 17 -5
18 -4 5 6 -13 10 -13 11 0 7 8 -2 15 -9 15 -15 0 -6 9 -18 20 -26 14 -10 17
-18 10 -25 -8 -8 -51 5 -145 43 -121 48 -170 63 -305 95 -34 8 -36 9 -11 10
56 2 246 -57 381 -118 37 -17 70 -31 74 -31 32 0 -217 107 -313 135 -42 12
-60 22 -63 36 -4 15 -12 20 -29 16 -16 -3 -31 4 -45 19 l-22 24 28 0 c16 0 37
-7 47 -17z m-531 -39 c-7 -24 -10 -26 -16 -11 -4 10 -2 24 5 32 18 21 21 14
11 -21z m869 10 c0 -16 -9 -18 -30 -4 -13 9 -13 11 0 19 17 12 30 5 30 -15z
m-1336 7 c3 -5 16 -7 29 -4 16 3 18 2 9 -5 -11 -7 -10 -10 3 -16 9 -3 24 -6
34 -6 9 0 25 -6 35 -13 15 -11 9 -12 -41 -4 -43 7 -63 16 -76 34 -10 12 -13
23 -8 23 5 0 12 -4 15 -9z m-136 -21 c16 -11 16 -11 0 -6 -15 4 -16 1 -8 -20
6 -14 10 -33 10 -41 0 -14 -4 -13 -22 4 -28 25 -101 63 -123 63 -10 0 -13 5
-9 11 8 14 126 5 152 -11z m1107 -1 c5 -6 3 -9 -7 -9 -24 0 -48 11 -48 22 0
10 39 1 55 -13z m-882 4 c-7 -2 -19 -2 -25 0 -7 3 -2 5 12 5 14 0 19 -2 13 -5z
m564 -9 c-3 -3 -12 -4 -19 -1 -8 3 -5 6 6 6 11 1 17 -2 13 -5z m-866 -40 c96
-70 152 -158 147 -232 -3 -39 -7 -49 -31 -62 -28 -14 -30 -14 -45 10 -9 14
-52 62 -96 107 -63 66 -80 90 -83 118 -2 20 1 35 7 35 5 0 9 -3 9 -7 -3 -20 3
-22 24 -9 16 11 26 12 37 5 13 -9 12 -10 -2 -5 -10 3 -20 1 -22 -3 -3 -5 5 -7
17 -6 31 3 31 3 17 20 -7 9 -19 14 -27 11 -8 -3 -11 -2 -8 3 3 5 0 13 -6 17
-7 4 -9 3 -6 -3 4 -6 0 -13 -8 -17 -8 -3 -17 -1 -20 4 -4 6 -1 10 4 10 6 0 11
7 11 16 0 15 3 14 28 -1 l27 -18 -19 21 c-28 32 -10 27 45 -14z m785 19 c19
-25 17 -33 -6 -33 -16 0 -40 26 -40 44 0 13 34 5 46 -11z m113 -7 c8 -10 24
-13 49 -10 25 4 32 2 22 -4 -8 -5 -41 -12 -72 -15 -56 -5 -58 -5 -58 19 0 19
5 24 24 24 13 0 29 -6 35 -14z m-1019 -42 c-10 -26 -12 -27 -22 -11 -7 14 -5
23 8 38 22 25 29 12 14 -27z m425 31 l40 -14 -45 5 -46 6 3 -44 3 -43 -15 50
c-8 28 -14 51 -15 53 -1 6 39 -1 75 -13z m304 -6 c-16 -10 -23 -4 -14 10 3 6
11 8 17 5 6 -4 5 -9 -3 -15z m-974 -51 l-16 -33 22 25 21 25 -14 -24 c-14 -23
-58 -37 -58 -19 0 16 54 81 58 70 2 -6 -4 -26 -13 -44z m1660 21 c37 -11 65
-22 63 -24 -5 -5 -167 31 -175 38 -13 14 47 6 112 -14z m341 -10 c4 -8 1 -8
-14 0 -12 6 -24 16 -28 22 -4 8 -1 8 14 0 12 -6 24 -16 28 -22z m64 4 c0 -8 5
-11 10 -8 6 3 10 4 10 1 0 -13 -40 -95 -49 -100 -14 -9 -14 -1 -1 27 9 20 9
20 -2 4 -7 -10 -18 -26 -24 -34 -19 -27 -10 67 9 104 17 33 47 37 47 6z
m-1379 2 c19 -8 27 -14 19 -14 -14 0 -72 28 -59 29 4 0 22 -7 40 -15z m347 -1
c8 -15 13 -15 65 0 30 9 63 16 74 15 10 0 -11 -8 -47 -18 -76 -21 -241 -113
-307 -170 -25 -23 -52 -41 -59 -41 -24 0 -15 15 20 34 19 10 52 34 73 53 21
20 69 51 108 70 62 32 67 37 47 44 -12 5 -22 13 -22 19 0 16 38 12 48 -6z
m433 2 c-6 -7 -15 -40 -20 -72 -7 -47 -9 -51 -10 -22 -1 39 -28 68 -64 68 -18
0 -19 -7 -15 -91 3 -57 1 -82 -4 -68 -5 12 -7 57 -6 98 l3 76 48 -1 c32 0 47
4 47 13 0 7 7 13 16 13 13 0 14 -3 5 -14z m429 -1 c14 -8 21 -14 15 -14 -5 0
-21 6 -35 14 -14 8 -20 14 -15 14 6 0 21 -6 35 -14z m995 -7 c14 -50 28 -77
36 -72 5 3 9 -6 9 -20 0 -14 -5 -26 -12 -26 -6 0 -8 -3 -5 -7 4 -3 16 2 27 12
11 10 20 13 20 8 0 -6 -22 -25 -50 -43 -27 -18 -48 -35 -45 -40 6 -10 -32 -44
-72 -64 -18 -9 -33 -19 -33 -22 0 -13 101 51 133 84 19 21 50 46 68 56 l34 19
-23 -25 c-12 -13 -20 -27 -18 -29 3 -3 -4 -6 -16 -6 -22 -2 -68 -40 -68 -56 0
-5 8 -3 18 4 16 13 16 13 0 -7 -10 -11 -18 -24 -18 -29 0 -4 8 -1 18 6 9 8 -1
-7 -23 -33 -22 -26 -51 -49 -65 -53 -14 -3 -74 -22 -135 -41 -125 -39 -125
-39 -125 -20 0 8 -6 17 -12 19 -8 3 -6 6 5 6 9 1 17 6 17 11 0 6 -11 8 -26 4
-19 -5 -25 -4 -20 5 4 6 15 12 24 12 9 1 4 4 -12 8 -27 6 -24 8 40 30 73 25
112 48 53 31 -46 -13 -52 -13 -37 4 7 8 15 13 18 13 5 -2 109 29 150 44 22 8
21 9 -7 4 -18 -3 -48 -7 -65 -10 -19 -3 -12 1 17 10 28 8 60 14 72 12 12 -2
50 10 84 27 72 35 80 55 50 114 -26 52 -34 82 -22 82 5 0 13 -10 16 -22z
m-2674 -10 c10 -18 9 -20 -6 -15 -9 4 -26 7 -38 7 -22 1 -22 1 -3 15 26 20 33
19 47 -7z m1109 12 c0 -5 -12 -10 -26 -10 -14 0 -23 4 -19 10 3 6 15 10 26 10
10 0 19 -4 19 -10z m863 3 c-7 -2 -19 -2 -25 0 -7 3 -2 5 12 5 14 0 19 -2 13
-5z m197 -8 c7 -9 8 -15 2 -15 -5 0 -12 7 -16 15 -3 8 -4 15 -2 15 2 0 9 -7
16 -15z m150 10 c0 -2 -22 -16 -50 -30 -27 -14 -50 -23 -50 -20 0 2 21 16 48
29 53 28 52 28 52 21z m-1610 -9 c0 -2 3 -11 6 -20 4 -10 1 -16 -9 -16 -17 0
-40 24 -30 33 7 8 33 10 33 3z m300 -16 c-8 -5 -24 -9 -35 -9 l-20 0 20 9 c11
5 27 9 35 9 13 1 13 0 0 -9z m350 -12 c0 -11 -68 -10 -75 2 -4 6 10 9 34 8 23
-1 41 -5 41 -10z m571 -28 c10 -6 19 -17 19 -25 0 -9 6 -12 15 -9 20 8 19 1
-5 -46 -26 -51 -45 -62 -26 -15 23 53 20 55 -10 10 -37 -55 -48 -65 -39 -36 4
14 3 21 -3 17 -5 -3 -4 11 4 32 22 62 15 70 -16 17 -27 -45 -30 -47 -26 -20 2
17 11 49 21 72 15 38 19 41 32 28 8 -8 23 -20 34 -25z m-1031 20 c-8 -5 -22
-10 -30 -10 -13 0 -13 1 0 10 8 5 22 10 30 10 13 0 13 -1 0 -10z m190 0 c-8
-5 -33 -9 -55 -9 -39 1 -39 2 -10 9 17 4 41 8 55 9 20 0 22 -1 10 -9z m335 0
c-3 -5 -10 -10 -16 -10 -5 0 -9 5 -9 10 0 6 7 10 16 10 8 0 12 -4 9 -10z m540
0 c3 -5 1 -10 -4 -10 -6 0 -11 5 -11 10 0 6 2 10 4 10 3 0 8 -4 11 -10z
m-1336 -47 c-9 -10 -16 -10 -33 -1 -31 16 -31 17 -11 32 15 11 21 11 36 -2 13
-12 15 -19 8 -29z m871 37 c12 -8 11 -10 -7 -10 -13 0 -23 5 -23 10 0 13 11
13 30 0z m-520 -10 c-19 -13 -30 -13 -30 0 0 6 10 10 23 10 18 0 19 -2 7 -10z
m-70 -4 c0 -2 -7 -6 -15 -10 -8 -3 -15 -1 -15 4 0 6 7 10 15 10 8 0 15 -2 15
-4z m397 -2 c-3 -3 -12 -4 -19 -1 -8 3 -5 6 6 6 11 1 17 -2 13 -5z m84 -9 c0
-5 -9 -11 -21 -13 -20 -3 -27 8 -13 22 10 9 34 3 34 -9z m-1074 -27 c-3 -7 -5
-2 -5 12 0 14 2 19 5 13 2 -7 2 -19 0 -25z m538 22 c-11 -5 -27 -9 -35 -9 -9
0 -8 4 5 9 11 5 27 9 35 9 9 0 8 -4 -5 -9z m185 0 c0 -5 -8 -10 -17 -10 -15 0
-16 2 -3 10 19 12 20 12 20 0z m63 3 c-7 -2 -19 -2 -25 0 -7 3 -2 5 12 5 14 0
19 -2 13 -5z m367 -14 c0 -5 -9 -9 -20 -9 -19 0 -26 11 -14 23 8 8 34 -3 34
-14z m67 -23 c-13 -20 -57 -36 -57 -21 0 4 10 19 23 35 16 20 25 25 35 17 10
-8 10 -14 -1 -31z m93 15 c0 -5 -9 -19 -20 -32 l-19 -24 -1 43 c0 40 1 42 20
32 11 -6 20 -15 20 -19z m1265 -3 c8 -20 13 -25 12 -13 -1 12 3 19 12 17 8 -2
11 3 8 11 -3 7 1 14 9 14 11 0 30 -27 22 -31 -2 -1 -16 -10 -31 -20 -16 -10
-30 -16 -31 -14 -7 8 -25 68 -21 68 3 0 12 -15 20 -32z m-3075 12 c0 -5 -5
-10 -11 -10 -5 0 -7 5 -4 10 3 6 8 10 11 10 2 0 4 -4 4 -10z m1088 -39 c23
-28 12 -33 -19 -7 -17 14 -36 26 -42 26 -7 0 -6 4 3 10 15 9 33 0 58 -29z m75
32 c-7 -2 -19 -2 -25 0 -7 3 -2 5 12 5 14 0 19 -2 13 -5z m-1080 -45 c-2 -4 5
-11 14 -17 15 -8 11 -10 -21 -11 -33 0 -37 2 -26 15 17 20 1 19 -22 -2 -24
-22 -23 -2 2 30 20 25 22 25 39 9 10 -9 16 -20 14 -24z m1457 32 c16 -6 6 -7
-30 -3 -30 3 -57 7 -59 9 -8 7 64 2 89 -6z m-257 -7 c-7 -2 -21 -2 -30 0 -10
3 -4 5 12 5 17 0 24 -2 18 -5z m332 -3 c3 -5 -1 -10 -9 -10 -9 0 -16 5 -16 10
0 6 4 10 9 10 6 0 13 -4 16 -10z m581 -1 l28 -10 -24 -13 c-14 -7 -23 -19 -22
-27 2 -8 0 -11 -4 -6 -4 4 -20 -5 -36 -20 -32 -31 -37 -23 -9 15 10 15 22 37
25 50 8 26 7 25 42 11z m-1438 -17 c3 -9 -2 -13 -14 -10 -9 1 -19 9 -22 16 -3
9 2 13 14 10 9 -1 19 -9 22 -16z m242 8 c0 -5 -4 -10 -10 -10 -5 0 -10 5 -10
10 0 6 5 10 10 10 6 0 10 -4 10 -10z m208 3 c-10 -2 -26 -2 -35 0 -10 3 -2 5
17 5 19 0 27 -2 18 -5z m356 -13 c101 -19 139 -29 105 -30 -8 -1 9 -9 38 -20
225 -80 384 -262 427 -485 32 -165 36 -178 30 -91 -7 90 -36 206 -65 252 -26
43 -24 53 11 60 17 4 27 11 23 17 -3 6 -1 7 6 3 6 -4 19 -2 28 6 14 11 16 11
11 -2 -2 -8 -22 -26 -44 -38 -21 -13 -30 -21 -19 -17 40 13 81 17 66 7 -11 -8
-10 -11 5 -14 12 -3 3 -9 -26 -16 l-45 -12 43 4 c23 2 42 0 42 -5 0 -5 -11 -9
-24 -9 -14 0 -28 -5 -31 -11 -5 -7 4 -8 28 -4 53 10 69 -6 21 -21 l-39 -12 45
-2 45 -3 -35 -7 c-22 -5 -27 -8 -13 -9 36 -2 37 -21 1 -22 -35 -1 -32 -3 17
-14 27 -7 28 -8 10 -15 -16 -7 -14 -9 15 -11 28 -1 30 -3 10 -6 l-24 -5 24
-14 c24 -14 23 -15 -22 -12 -25 2 -44 0 -41 -4 2 -5 16 -8 31 -8 15 0 34 -5
42 -10 11 -7 6 -10 -20 -10 l-35 -1 30 -14 30 -13 -35 -2 -35 -2 40 -13 c32
-11 35 -14 15 -15 l-25 -1 25 -14 25 -14 -35 -2 c-28 -1 -30 -3 -10 -6 41 -8
48 -23 10 -24 l-35 -1 34 -10 c36 -10 32 -24 -9 -30 l-25 -4 29 -9 c20 -5 31
-4 37 6 5 9 8 -10 6 -48 -2 -55 -5 -63 -21 -63 -20 0 -20 0 0 -15 18 -14 18
-14 -6 -15 -23 -1 -24 -2 -7 -14 23 -18 22 -26 -5 -27 l-23 -2 23 -4 c31 -6
28 -21 -5 -25 -22 -3 -12 -9 49 -28 43 -13 76 -26 73 -28 -2 -2 -28 3 -58 12
-62 18 -81 20 -73 7 3 -5 36 -14 73 -21 38 -7 75 -16 83 -21 22 -12 1 -11 -77
5 -83 17 -101 17 -107 -1 -5 -13 47 -53 69 -53 6 0 -5 9 -22 20 -40 24 -44 36
-5 16 15 -7 47 -16 72 -20 44 -5 44 -5 -10 10 -30 8 -59 20 -65 26 -7 7 -4 8
10 4 11 -3 44 -10 74 -16 61 -11 71 -17 52 -29 -7 -5 -12 -10 -11 -12 5 -12
-22 -59 -30 -54 -5 3 -10 1 -10 -5 0 -13 -38 -5 -98 21 -42 18 -42 18 -67 -5
-14 -13 -25 -28 -25 -34 0 -24 -23 -22 -65 7 -31 21 -45 26 -45 16 0 -7 -4
-17 -10 -20 -5 -3 -8 0 -5 7 25 72 25 71 43 56 9 -9 28 -21 42 -28 18 -9 14
-3 -13 21 -28 25 -37 39 -32 52 7 16 11 16 54 -8 40 -23 43 -23 21 -4 -14 12
-33 27 -42 33 -15 11 -15 16 -1 69 9 31 19 54 23 52 5 -3 8 5 7 18 -1 29 6 50
18 59 6 5 5 8 -4 8 -11 0 -11 3 -1 15 10 12 10 15 -1 15 -11 0 -11 2 1 10 8 5
10 10 4 10 -12 0 -12 29 0 48 4 6 3 12 -3 12 -5 0 -8 9 -6 20 2 11 -2 20 -8
21 -7 0 -3 4 8 9 17 7 16 9 -10 10 -28 1 -29 1 -10 12 19 12 19 12 -5 19 -23
6 -23 7 -3 8 33 2 27 41 -7 42 -23 2 -23 2 -2 6 12 2 22 10 22 18 0 8 -8 12
-22 9 l-23 -5 22 10 c13 6 20 17 18 28 -2 10 -4 21 -4 24 -1 3 -13 5 -28 3
l-28 -4 27 11 c23 9 26 13 16 29 -6 10 -17 16 -23 14 -6 -3 -19 2 -30 11 -11
8 -15 15 -10 14 22 -3 27 2 15 16 -11 13 -15 13 -22 3 -6 -9 -7 -5 -3 9 5 18
3 22 -9 17 -16 -6 -20 7 -17 51 2 15 -2 12 -14 -10 -23 -41 -25 -42 -20 -6 2
18 0 29 -6 26 -5 -4 -9 -1 -9 5 0 6 -4 8 -10 5 -5 -3 -10 1 -10 11 0 14 -2 15
-17 3 -14 -12 -16 -12 -11 1 3 8 9 26 13 40 7 24 7 24 -9 5 -8 -11 -16 -25
-16 -32 0 -23 -15 -21 -15 2 0 13 4 20 10 17 6 -3 4 1 -2 10 -10 11 -10 23 -2
47 12 33 25 32 39 -3 6 -14 9 -16 9 -5 1 9 -8 24 -20 35 -26 23 -36 10 -45
-58 -4 -27 -10 -48 -14 -48 -17 0 -39 37 -34 60 4 24 4 25 -5 3 -15 -33 -33
-29 -26 5 l6 27 -15 -25 c-19 -32 -20 -11 -2 58 7 29 10 52 6 52 -4 0 -13 -27
-19 -60 -13 -65 -35 -84 -27 -22 l6 37 -10 -33 c-16 -49 -31 -28 -25 36 l4 57
-12 -55 c-11 -49 -15 -55 -34 -52 -25 4 -28 19 -14 90 5 23 5 42 1 42 -4 0
-10 -27 -14 -59 -4 -33 -12 -61 -19 -64 -21 -7 -57 5 -50 17 4 7 1 6 -9 -2
-19 -16 -68 -12 -68 6 0 7 -4 11 -9 8 -5 -3 -11 8 -15 25 -8 44 -8 149 2 149
4 0 56 -9 116 -20z m1493 -12 c-3 -7 -5 -2 -5 12 0 14 2 19 5 13 2 -7 2 -19 0
-25z m-1777 12 c-8 -5 -31 -9 -50 -9 l-35 1 30 8 c17 4 39 8 50 9 16 1 17 -1
5 -9z m484 -31 c-8 -14 -44 -10 -44 4 0 7 6 19 12 25 10 10 15 9 25 -4 7 -9
10 -21 7 -25z m105 -11 c-22 -57 -26 -64 -34 -56 -10 10 26 108 40 108 12 0
11 -10 -6 -52z m-1624 32 c48 -7 49 -7 10 -8 -22 0 -65 3 -95 8 l-55 7 45 1
c25 0 68 -3 95 -8z m437 -32 c-6 -6 -15 -7 -22 -3 -8 5 -6 13 7 27 16 18 18
19 21 3 2 -9 -1 -22 -6 -27z m385 -91 c-2 -6 -12 12 -24 39 -34 79 -36 105 -3
35 17 -35 29 -69 27 -74z m123 119 c0 -2 -11 -6 -25 -8 -14 -3 -25 -1 -25 3 0
5 11 9 25 9 14 0 25 -2 25 -4z m91 -5 c-11 -7 -11 -9 0 -13 9 -3 13 -28 13
-84 1 -76 0 -79 -23 -82 -50 -7 -72 7 -98 64 -35 77 -27 101 35 109 26 4 52 8
57 10 20 7 30 4 16 -4z m920 -24 l-23 -22 17 28 c10 15 20 25 23 22 3 -3 -5
-16 -17 -28z m836 11 c-3 -8 -6 -5 -6 6 -1 11 2 17 5 13 3 -3 4 -12 1 -19z
m-1217 -12 c0 -27 -15 -42 -25 -26 -8 13 3 50 16 50 5 0 9 -11 9 -24z m-1015
-13 l-18 -28 21 19 c12 11 22 15 22 9 0 -5 -9 -18 -20 -28 -11 -10 -20 -13
-20 -7 0 7 -7 12 -16 12 -10 0 -7 7 12 25 35 32 41 32 19 -2z m1113 -26 c-5
-26 -14 -47 -20 -47 -10 0 -6 28 12 76 16 40 20 25 8 -29z m-1625 36 c-7 -2
-21 -2 -30 0 -10 3 -4 5 12 5 17 0 24 -2 18 -5z m625 -7 c-19 -14 -25 -32 -8
-21 6 3 10 1 10 -5 0 -6 14 -2 31 10 16 12 32 20 35 17 2 -2 -8 -12 -23 -22
-15 -10 -41 -32 -56 -48 -15 -16 -30 -27 -33 -24 -3 3 7 17 23 31 15 14 24 26
19 26 -6 0 -20 -10 -33 -22 -13 -12 -23 -16 -23 -9 0 7 -4 9 -10 6 -14 -9 -12
8 3 27 16 20 59 48 72 48 5 0 2 -7 -7 -14z m1332 -3 c-19 -8 -53 -28 -75 -45
l-40 -30 43 40 c38 36 61 48 97 50 6 0 -6 -6 -25 -15z m-2183 1 c-3 -3 -12 -4
-19 -1 -8 3 -5 6 6 6 11 1 17 -2 13 -5z m100 0 c-3 -3 -12 -4 -19 -1 -8 3 -5
6 6 6 11 1 17 -2 13 -5z m-50 -10 c-3 -3 -12 -4 -19 -1 -8 3 -5 6 6 6 11 1 17
-2 13 -5z m143 -4 c20 -6 21 -8 5 -8 -11 0 -33 4 -50 8 -27 7 -27 8 -5 8 14 0
36 -4 50 -8z m-94 -29 c55 -16 126 -41 159 -56 56 -24 57 -26 20 -20 -22 4
-79 20 -128 36 -48 16 -92 29 -98 29 -5 0 1 -15 14 -32 41 -56 41 -64 1 -26
-21 20 -51 41 -66 47 -18 7 -28 18 -28 31 0 26 9 25 126 -9z m112 -8 c46 -13
82 -27 79 -29 -4 -5 -219 55 -227 63 -8 8 56 -6 148 -34z m357 28 c7 -12 -12
-24 -25 -16 -11 7 -4 25 10 25 5 0 11 -4 15 -9z m1246 -28 c-10 -17 -10 -16
-11 3 0 23 13 41 18 25 2 -6 -1 -18 -7 -28z m-1046 8 c-3 -6 -11 -11 -17 -11
-6 0 -6 6 2 15 14 17 26 13 15 -4z m148 4 c-44 -19 -41 -24 10 -18 41 5 42 5
19 -12 -12 -9 -27 -13 -32 -10 -6 3 -22 -3 -36 -14 -28 -22 -47 -20 -37 5 7
19 73 64 93 64 8 -1 0 -7 -17 -15z m963 -27 c-7 -38 -11 -42 -26 -33 -9 5 -9
10 -1 18 6 6 11 19 11 29 0 10 5 18 11 18 8 0 9 -11 5 -32z m991 10 c-3 -8 -6
-5 -6 6 -1 11 2 17 5 13 3 -3 4 -12 1 -19z m-2241 -3 c-26 -19 -47 -19 -40 0
4 8 18 15 33 15 25 -1 25 -1 7 -15z m1288 -21 c-19 -45 -11 -57 11 -15 22 44
26 38 8 -15 -15 -43 -16 -44 -34 -28 -23 21 -23 22 1 62 26 42 33 41 14 -4z
m909 9 c-5 -12 -3 -14 8 -8 12 8 12 6 0 -8 -7 -9 -17 -14 -22 -11 -5 3 -9 1
-9 -3 0 -5 -15 -17 -32 -27 -31 -18 -30 -16 12 28 49 51 52 53 43 29z m-2823
-13 c14 -11 21 -20 15 -20 -5 0 -3 -5 5 -10 13 -9 13 -11 0 -20 -8 -5 -10 -10
-4 -10 5 0 15 5 21 11 8 8 13 7 18 -2 6 -8 4 -10 -6 -5 -8 4 -5 0 6 -8 84 -66
128 -148 130 -243 l2 -63 -41 43 c-23 23 -73 67 -111 98 -96 77 -107 91 -103
131 2 26 7 33 25 33 26 1 68 35 43 35 -13 0 -13 2 0 10 11 8 8 9 -12 4 -23 -5
-27 -3 -25 15 2 26 5 26 37 1z m670 10 c0 -5 -5 -10 -11 -10 -5 0 -7 5 -4 10
3 6 8 10 11 10 2 0 4 -4 4 -10z m-168 -32 c-8 -8 -9 -4 -5 13 4 13 8 18 11 10
2 -7 -1 -18 -6 -23z m486 -41 c32 -84 32 -88 -5 -109 -41 -25 -66 -17 -98 30
-31 45 -31 68 -2 102 12 14 6 10 -13 -10 -32 -34 -35 -35 -35 -14 0 12 2 21 4
18 2 -2 17 8 33 21 16 14 34 23 39 20 5 -4 17 -2 26 4 23 12 23 12 51 -62z
m-207 31 c20 -18 26 -25 14 -15 -12 9 -23 15 -26 13 -2 -3 -15 4 -29 14 -18
14 -21 20 -9 20 9 0 31 -15 50 -32z m-193 10 c-6 -16 -36 -34 -44 -26 -3 4 -4
14 -1 23 7 17 51 21 45 3z m1381 -23 c-22 -36 -48 -51 -30 -16 6 10 7 22 3 26
-4 5 -2 5 4 2 7 -4 17 0 24 8 21 25 20 17 -1 -20z m-1829 -30 c0 -16 -2 -17
-9 -5 -6 8 -8 17 -5 21 2 4 -3 9 -11 13 -8 3 -15 10 -15 16 0 5 9 2 20 -7 11
-10 20 -27 20 -38z m117 30 c23 -6 45 -14 48 -17 10 -9 -75 2 -107 14 -33 12
-38 33 -5 22 12 -4 41 -13 64 -19z m-267 7 c0 -14 -11 -21 -26 -15 -8 3 -11 9
-8 14 7 11 34 12 34 1z m477 -29 c-3 -10 -5 -4 -5 12 0 17 2 24 5 18 2 -7 2
-21 0 -30z m209 26 c11 -18 -9 -28 -36 -17 -20 7 -22 11 -10 18 20 13 37 12
46 -1z m2265 -32 c10 -40 13 -44 37 -40 l27 5 -25 -21 c-34 -28 -36 -27 -44
17 -3 20 -9 47 -12 60 -4 12 -4 22 0 22 3 0 11 -20 17 -43z m-946 23 c-9 -14
8 -13 23 2 8 8 12 9 12 1 0 -6 -16 -25 -36 -41 -29 -24 -32 -31 -19 -36 9 -3
25 -1 35 4 27 14 34 12 20 -5 -7 -8 -20 -15 -29 -16 -9 0 -11 -3 -4 -5 6 -3
25 2 42 10 40 21 45 20 22 -3 -44 -44 -57 -44 -90 1 -23 31 -28 45 -20 54 6 8
16 12 22 11 6 -1 12 4 13 11 3 19 4 22 10 22 3 0 2 -4 -1 -10z m928 -89 c-6
-8 -11 5 -17 49 l-5 45 13 -45 c7 -25 11 -47 9 -49z m-2733 7 c0 -62 0 -63
-15 -34 -8 15 -15 40 -14 55 l1 26 8 -25 c8 -24 8 -23 9 8 2 58 11 33 11 -30z
m340 54 c0 -5 -6 -16 -13 -26 -13 -18 -14 -18 -20 -2 -4 10 -5 22 -1 27 7 11
34 12 34 1z m190 -2 c8 -5 11 -10 5 -10 -5 0 -17 5 -25 10 -8 5 -10 10 -5 10
6 0 17 -5 25 -10z m1305 -15 c-29 -23 -45 -31 -45 -20 0 6 62 45 70 45 3 0 -8
-11 -25 -25z m-1738 9 c-3 -3 -12 -4 -19 -1 -8 3 -5 6 6 6 11 1 17 -2 13 -5z
m1228 -4 c3 -5 -3 -10 -14 -10 -11 0 -23 5 -26 10 -3 6 3 10 14 10 11 0 23 -4
26 -10z m-1299 -128 c-11 -10 -12 3 -6 68 l5 65 3 -64 c2 -35 1 -66 -2 -69z
m380 109 c12 10 13 9 8 -5 -7 -18 -13 -19 -33 -7 -8 6 -10 14 -5 22 7 11 9 10
12 -4 3 -15 7 -16 18 -6z m109 -19 c17 -12 18 -14 2 -8 -10 3 -32 6 -49 6 -25
0 -28 2 -18 14 12 16 32 12 65 -12z m705 18 c11 -7 5 -10 -25 -11 -22 0 -49
-4 -60 -9 -12 -5 5 -7 45 -3 36 3 62 3 59 -1 -3 -3 -44 -8 -90 -11 -102 -5
-178 -40 -266 -121 -71 -66 -83 -70 -23 -8 109 113 303 201 360 164z m842 -11
c-24 -11 -49 -18 -55 -16 -7 2 8 11 33 20 62 21 74 19 22 -4z m897 -11 c7 -17
5 -26 -7 -35 -24 -20 -32 -16 -32 15 0 46 24 58 39 20z m-1652 -4 c-3 -3 -12
-4 -19 -1 -8 3 -5 6 6 6 11 1 17 -2 13 -5z m173 -4 c0 -5 -4 -10 -10 -10 -5 0
-10 5 -10 10 0 6 5 10 10 10 6 0 10 -4 10 -10z m-1190 -4 c0 -11 -13 -36 -19
-36 -3 0 -12 9 -19 20 -11 18 -10 20 13 20 14 0 25 -2 25 -4z m1232 -85 c36
-29 76 -67 89 -84 13 -19 -8 -3 -50 35 -40 38 -102 82 -137 99 -35 18 -64 33
-64 35 0 15 109 -43 162 -85z m672 56 c-23 -28 -25 -36 -19 -87 6 -54 5 -58
-17 -63 -13 -4 -39 -6 -58 -6 l-35 0 39 15 c59 21 57 28 -4 20 -63 -8 -62 -2
1 18 l44 14 -40 1 c-71 2 -76 17 -15 45 59 27 44 36 -17 11 -57 -24 -52 -8 6
19 58 26 55 45 -3 21 -20 -8 -36 -13 -36 -10 0 14 71 33 122 32 l57 0 -25 -30z
m615 11 c-5 -13 -25 -33 -44 -45 -39 -26 -50 -29 -39 -11 4 7 3 8 -5 4 -6 -4
-9 -11 -6 -16 3 -5 -15 -23 -41 -41 -42 -31 -44 -34 -27 -47 10 -7 39 -12 66
-11 39 2 51 7 57 23 5 12 9 15 9 9 1 -7 6 -13 12 -13 7 0 10 15 7 39 -2 22 0
37 4 35 5 -3 9 -13 10 -22 1 -9 4 8 8 38 7 50 7 48 6 -26 -1 -52 -5 -80 -11
-77 -6 2 -29 -3 -50 -10 -31 -11 -90 -13 -262 -9 l-223 5 0 23 c0 40 104 82
277 109 50 9 110 22 132 30 23 8 41 12 41 10 0 -3 -25 -21 -55 -41 -70 -47
-64 -56 9 -14 31 17 60 29 65 26 5 -4 13 -1 17 5 5 8 3 9 -7 4 -12 -8 -12 -6
0 9 10 12 16 14 22 5 5 -8 10 -5 18 10 15 28 23 27 10 -1z m-2465 -58 c-55
-86 -78 -150 -71 -196 5 -28 3 -34 -12 -34 -16 0 -17 5 -10 43 14 72 27 106
60 160 28 47 67 97 76 97 1 0 -18 -32 -43 -70z m189 63 c-7 -2 -19 -2 -25 0
-7 3 -2 5 12 5 14 0 19 -2 13 -5z m1845 0 c-10 -2 -28 -2 -40 0 -13 2 -5 4 17
4 22 1 32 -1 23 -4z m-2064 -50 c-15 -27 -40 -70 -55 -98 -30 -52 -40 -56 -14
-4 9 16 13 35 9 41 -4 7 -3 8 4 4 10 -6 17 6 10 17 -4 7 24 47 31 43 4 -3 13
6 19 19 7 14 14 25 18 25 3 0 -7 -21 -22 -47z m119 41 c11 -11 -3 -24 -18 -18
-8 4 -12 10 -9 15 6 11 18 12 27 3z m897 -4 c30 -5 10 -6 -59 -3 -77 5 -102 3
-97 -6 4 -6 18 -8 32 -5 13 3 24 2 24 -4 0 -5 -25 -14 -54 -20 -30 -6 -77 -22
-105 -36 -53 -28 -176 -125 -167 -133 3 -3 30 17 61 45 31 27 78 61 105 76 60
33 142 45 166 25 15 -12 10 -15 -42 -25 l-59 -10 89 2 c70 2 92 -1 105 -13 14
-15 11 -15 -34 -10 -46 5 -47 5 -15 -4 89 -27 126 -45 159 -76 20 -19 30 -31
22 -27 -11 5 -13 3 -8 -9 8 -23 -1 -21 -21 2 -10 11 -28 22 -42 25 l-25 7 26
-15 c15 -9 30 -23 33 -33 6 -16 5 -16 -11 -1 -16 14 -20 14 -32 1 -7 -8 -19
-12 -27 -9 -7 3 6 -21 29 -53 46 -65 62 -72 27 -15 -17 29 -18 34 -4 23 20
-16 44 -70 43 -96 0 -16 -1 -16 -9 2 -7 15 -9 11 -7 -19 2 -32 -2 -40 -20 -47
-20 -7 -23 -5 -23 17 0 32 -31 93 -64 123 -14 14 -26 30 -26 37 0 16 -37 37
-49 29 -5 -3 -11 1 -14 7 -3 10 -8 9 -22 -2 -11 -9 -16 -10 -11 -2 9 14 -5 16
-22 2 -6 -6 -10 -7 -7 -3 8 10 -34 35 -46 27 -8 -5 -8 -1 0 14 25 46 4 55 -53
23 -23 -13 -36 -16 -38 -9 -2 6 -9 9 -14 6 -15 -10 -76 -98 -67 -98 4 0 21 18
37 40 16 22 32 38 34 35 2 -2 -7 -18 -22 -36 -21 -24 -24 -34 -15 -45 6 -8 18
-14 25 -14 8 0 14 -5 14 -11 0 -5 5 -7 10 -4 6 3 10 11 10 16 0 6 -4 7 -10 4
-5 -3 -10 0 -10 8 0 9 11 14 30 14 25 0 28 -3 17 -15 -6 -8 -11 -25 -9 -36 2
-17 1 -18 -7 -6 -9 13 -11 12 -11 -3 0 -26 23 -15 30 14 l6 24 6 -24 c4 -15
11 -20 19 -15 9 5 9 3 3 -7 -9 -15 -11 -20 -13 -46 -1 -16 -3 -16 -11 -3 -13
20 -13 4 0 -21 14 -25 28 -24 33 4 4 19 4 19 6 -5 2 -48 64 -138 96 -138 8 0
17 -4 20 -10 3 -5 -1 -10 -10 -10 -13 0 -15 -6 -10 -31 5 -22 4 -29 -4 -25 -6
4 -11 20 -11 37 0 16 -4 29 -9 29 -5 0 -5 -20 0 -47 12 -63 4 -66 -16 -7 -14
45 -15 46 -11 12 4 -36 4 -36 -15 -17 -10 10 -20 31 -20 47 -1 24 -2 23 -8 -8
l-7 -35 -13 24 c-10 19 -15 21 -22 10 -6 -10 -10 -5 -15 19 -7 34 -23 44 -25
15 0 -14 -2 -15 -6 -3 -3 8 -14 27 -24 41 -11 15 -25 51 -33 80 l-14 54 -7
-40 c-11 -64 -13 -64 -15 0 l-2 60 -10 -55 c-10 -60 -5 -143 12 -202 13 -46
81 -133 123 -159 18 -10 25 -19 17 -19 -24 0 -72 36 -102 77 -16 20 -28 30
-28 23 0 -8 23 -36 51 -63 48 -46 54 -49 89 -43 23 4 54 0 80 -9 23 -8 52 -14
64 -14 18 1 18 2 -4 8 -28 7 -90 39 -90 46 0 3 19 -4 43 -16 23 -13 61 -22 85
-22 23 0 42 -4 42 -9 0 -5 27 -7 60 -5 45 4 71 12 109 37 59 37 108 90 117
125 3 14 9 23 13 21 4 -3 5 11 3 30 -5 42 -16 43 -32 4 -7 -17 -17 -33 -22
-36 -6 -4 -5 3 2 15 6 12 10 30 8 39 -2 10 -14 -6 -32 -41 -15 -32 -30 -56
-33 -53 -2 2 2 15 11 28 8 12 20 54 26 93 6 38 13 71 15 73 2 3 7 -9 12 -24
l7 -29 7 35 c6 35 6 35 8 -10 l3 -45 13 35 c7 19 14 67 15 105 l2 70 19 -70
c18 -68 19 -69 16 -22 -2 45 -1 47 25 47 25 0 27 2 22 33 -7 41 -22 109 -30
133 -5 16 -4 16 5 4 26 -36 54 -132 61 -215 l8 -90 -2 100 c-2 58 -9 118 -18
143 -9 23 -12 42 -8 42 4 0 16 -28 26 -62 28 -93 25 -232 -5 -323 -35 -103
-54 -136 -127 -219 -52 -59 -64 -79 -55 -89 14 -17 4 -27 -26 -27 -13 0 -22
-4 -19 -8 7 -12 -52 -54 -64 -47 -6 3 -10 -4 -10 -16 0 -22 -1 -22 -14 -4 -8
11 -12 26 -9 35 4 12 3 12 -5 1 -5 -7 -7 -23 -5 -35 4 -17 3 -18 -6 -6 -6 8
-11 25 -11 38 0 12 -4 22 -10 22 -12 0 -12 -6 0 -50 9 -32 8 -33 -5 -16 -8 11
-15 25 -15 32 0 7 -5 16 -11 20 -8 5 -9 -6 -5 -37 5 -32 4 -40 -3 -29 -6 8
-11 25 -11 38 0 12 -5 22 -11 22 -7 0 -8 -11 -4 -31 5 -22 4 -29 -4 -25 -6 4
-11 18 -11 31 0 13 -5 27 -11 30 -7 5 -8 -6 -4 -32 l6 -38 -15 31 c-17 38 -36
52 -36 27 -1 -17 -1 -17 -11 0 -5 9 -14 17 -19 17 -6 0 -10 -8 -11 -17 0 -16
-1 -16 -8 1 -4 10 -27 26 -52 35 -76 30 -186 107 -230 163 -82 104 -120 231
-122 413 -2 107 -1 112 33 180 42 84 126 171 201 208 47 24 64 27 153 26 56 0
121 -4 146 -9z m1107 4 c-3 -3 -12 -4 -19 -1 -8 3 -5 6 6 6 11 1 17 -2 13 -5z
m-2930 -41 c-3 -10 -5 -4 -5 12 0 17 2 24 5 18 2 -7 2 -21 0 -30z m1028 27
c-26 -11 -55 -12 -55 -2 0 4 17 9 38 10 29 1 33 -1 17 -8z m289 -47 c-43 -58
-47 -61 -28 -18 22 48 47 80 52 66 2 -6 -9 -27 -24 -48z m838 35 c-12 -12 -35
-1 -27 12 3 5 13 6 21 3 10 -4 12 -9 6 -15z m1243 13 c3 -5 1 -12 -5 -16 -5
-3 -10 1 -10 9 0 18 6 21 15 7z m-2339 -16 c-19 -14 -18 -15 15 -16 26 -1 22
-3 -20 -9 -29 -5 -61 -15 -69 -24 -15 -15 -12 -14 26 0 34 14 49 15 84 6 l43
-11 -39 4 c-47 5 -43 -1 15 -20 l44 -15 -50 5 -50 4 55 -19 c55 -20 45 -19
-65 5 -97 21 -99 22 -74 54 11 14 37 31 57 38 49 15 50 15 28 -2z m2027 8 c-7
-2 -21 -2 -30 0 -10 3 -4 5 12 5 17 0 24 -2 18 -5z m284 -15 c-3 -8 -6 -5 -6
6 -1 11 2 17 5 13 3 -3 4 -12 1 -19z m-2617 5 c0 -5 -7 -17 -15 -27 -15 -20
-20 -10 -9 18 6 16 24 22 24 9z m91 -78 c-28 -53 -41 -89 -41 -116 0 -24 -4
-38 -10 -34 -13 8 -13 66 -1 98 14 36 82 139 88 133 3 -3 -13 -39 -36 -81z
m2134 70 c-33 -6 -78 -17 -100 -23 -22 -7 -47 -12 -55 -11 -34 2 149 47 190
47 14 0 -2 -6 -35 -13z m-2032 -1 c11 -11 -3 -24 -18 -18 -8 4 -12 10 -9 15 6
11 18 12 27 3z m1117 -4 c0 -5 -4 -10 -10 -10 -5 0 -10 5 -10 10 0 6 5 10 10
10 6 0 10 -4 10 -10z m-1376 -16 c20 -8 11 -24 -15 -24 -19 0 -25 11 -12 23 8
8 8 8 27 1z m1439 -29 c-6 -16 -16 -19 -26 -8 -9 8 13 34 24 28 4 -3 6 -12 2
-20z m-1970 -2 l32 -17 -25 -6 c-26 -7 -64 15 -54 31 7 12 10 12 47 -8z m114
-87 c9 -4 20 -1 25 6 6 10 8 9 8 -3 0 -9 18 -29 41 -43 53 -36 162 -136 147
-136 -6 0 -40 27 -74 60 -62 60 -135 101 -204 115 -38 8 -39 10 14 -55 12 -14
2 -7 -21 14 -23 22 -40 42 -38 46 2 4 -6 5 -19 3 -22 -5 -20 -7 23 -48 l46
-44 -39 5 c-21 2 -43 7 -47 10 -5 3 -9 1 -9 -5 0 -5 6 -12 13 -14 7 -3 5 -6
-5 -6 -13 -1 -18 7 -18 27 -1 24 -12 60 -35 115 -5 13 -2 17 11 17 15 0 16 -2
5 -9 -16 -10 -2 -16 69 -26 25 -4 53 -9 63 -11 14 -5 17 2 19 43 l2 48 3 -52
c3 -36 9 -53 20 -57z m651 92 c-3 -7 -12 -14 -21 -16 -12 -2 -15 1 -11 12 7
19 38 22 32 4z m885 5 c-7 -2 -21 -2 -30 0 -10 3 -4 5 12 5 17 0 24 -2 18 -5z
m-782 -75 c42 -46 99 -145 99 -172 0 -29 -24 -27 -135 11 -86 30 -113 44 -124
64 -18 32 -9 67 25 108 40 47 85 44 135 -11z m-826 22 c13 -5 14 -9 5 -9 -8 0
-24 4 -35 9 -13 5 -14 9 -5 9 8 0 24 -4 35 -9z m152 -27 c-3 -10 -5 -4 -5 12
0 17 2 24 5 18 2 -7 2 -21 0 -30z m901 -2 c-12 -22 -24 -38 -26 -36 -5 4 37
75 44 75 3 0 -6 -18 -18 -39z m-604 -33 c-14 -28 -17 -29 -26 -14 -5 10 -7 28
-4 42 6 21 9 23 26 14 19 -10 19 -12 4 -42z m16 -29 c-11 -24 -18 -35 -15 -24
4 11 12 40 18 65 8 28 13 37 15 24 2 -11 -6 -40 -18 -65z m1314 29 c-4 -6 0
-14 7 -19 8 -5 9 -9 3 -9 -5 0 -23 14 -40 31 -21 22 -24 28 -10 23 16 -6 18
-4 13 12 -6 15 -3 15 13 -5 11 -12 17 -28 14 -33z m-1576 -18 c0 -9 -3 -7 -8
5 -5 11 -8 29 -8 40 0 16 2 15 8 -5 4 -14 8 -32 8 -40z m892 37 c0 -2 -11 -18
-25 -37 -14 -19 -25 -30 -25 -26 0 9 39 66 46 66 2 0 4 -1 4 -3z m320 -22 c-7
-8 -18 -15 -24 -15 -6 0 -2 7 8 15 25 19 32 19 16 0z m1695 -19 c4 -19 5 -42
3 -52 -2 -10 -8 5 -14 34 -6 29 -7 52 -3 52 5 0 11 -15 14 -34z m-51 -31 c4
-19 3 -25 -3 -15 -4 8 -11 29 -15 45 -4 19 -3 25 3 15 4 -8 11 -28 15 -45z
m-2827 13 c-3 -7 -5 -2 -5 12 0 14 2 19 5 13 2 -7 2 -19 0 -25z m1880 16 c-3
-3 -12 -4 -19 -1 -8 3 -5 6 6 6 11 1 17 -2 13 -5z m-2020 -36 c-3 -7 -5 -2 -5
12 0 14 2 19 5 13 2 -7 2 -19 0 -25z m400 10 c-3 -8 -6 -5 -6 6 -1 11 2 17 5
13 3 -3 4 -12 1 -19z m1533 12 c0 -5 -5 -10 -11 -10 -5 0 -7 5 -4 10 3 6 8 10
11 10 2 0 4 -4 4 -10z m530 6 c0 -2 -11 -11 -25 -20 -24 -16 -25 -16 -25 4 0
15 7 20 25 20 14 0 25 -2 25 -4z m-2140 -40 c-13 -13 -35 7 -25 24 5 8 11 8
21 -1 10 -8 12 -15 4 -23z m2073 27 c-7 -2 -19 -2 -25 0 -7 3 -2 5 12 5 14 0
19 -2 13 -5z m-2416 -25 c-3 -8 -6 -5 -6 6 -1 11 2 17 5 13 3 -3 4 -12 1 -19z
m1708 3 c-3 -6 -11 -11 -16 -11 -5 0 -4 6 3 14 14 16 24 13 13 -3z m-427 -12
c3 -11 2 -11 -6 -1 -7 10 -11 10 -22 -3 -7 -8 -17 -15 -23 -15 -5 0 -2 9 8 20
20 22 37 22 43 -1z m32 11 c0 -5 -5 -10 -11 -10 -5 0 -7 5 -4 10 3 6 8 10 11
10 2 0 4 -4 4 -10z m47 -12 c-3 -8 -6 -5 -6 6 -1 11 2 17 5 13 3 -3 4 -12 1
-19z m-1280 -10 c-3 -8 -6 -5 -6 6 -1 11 2 17 5 13 3 -3 4 -12 1 -19z m333 -1
c0 -16 -9 -26 -32 -35 -30 -10 -31 -10 -14 3 11 8 24 15 29 15 4 0 5 5 2 10
-6 10 1 30 11 30 2 0 4 -10 4 -23z m2015 13 c4 -6 -15 -9 -52 -8 l-58 1 45 7
c25 4 48 8 52 8 4 1 10 -2 13 -8z m564 -46 c-45 -46 -117 -86 -143 -79 -20 5
-20 5 1 -6 17 -9 30 -6 73 17 29 16 72 46 96 67 29 26 44 34 44 23 0 -8 -20
-29 -45 -47 -25 -18 -45 -40 -45 -48 0 -11 -3 -12 -8 -4 -5 8 -11 8 -24 -1
-14 -10 -15 -16 -5 -36 11 -22 67 -48 67 -31 0 5 11 6 24 4 22 -4 25 -1 29 28
3 31 4 30 5 -8 l2 -43 -45 0 c-29 0 -64 9 -94 24 -56 29 -196 69 -299 86 l-73
12 4 31 c3 31 6 32 63 40 71 10 233 5 253 -8 8 -4 31 -9 50 -9 25 -1 35 -5 33
-14 -1 -8 2 -12 8 -10 7 2 12 8 12 13 0 16 19 35 29 29 5 -3 9 3 10 13 0 12 2
13 6 5 3 -8 -10 -29 -28 -48z m-3011 32 c46 -24 80 -69 97 -129 9 -32 14 -61
11 -64 -8 -8 -156 45 -193 70 -36 25 -53 55 -53 97 0 19 6 30 18 33 37 10 94
6 120 -7z m1522 -8 c0 -18 -2 -20 -9 -8 -6 8 -7 18 -5 22 9 14 14 9 14 -14z
m-1000 -18 c33 -9 33 -9 -9 -4 -38 5 -43 4 -38 -10 4 -9 2 -16 -2 -16 -11 0
-31 -138 -34 -235 -3 -59 -3 -55 -5 24 -1 51 3 133 10 181 10 76 14 87 27 79
9 -5 32 -13 51 -19z m1550 10 c0 -5 -5 -10 -11 -10 -5 0 -7 5 -4 10 3 6 8 10
11 10 2 0 4 -4 4 -10z m358 3 c-15 -2 -42 -2 -60 0 -18 2 -6 4 27 4 33 0 48
-2 33 -4z m-2321 -25 c-3 -8 -6 -5 -6 6 -1 11 2 17 5 13 3 -3 4 -12 1 -19z
m42 -75 c-1 -67 -4 -88 -9 -68 -15 60 -11 165 7 165 2 0 2 -44 2 -97z m192 60
c-10 -17 -10 -16 -11 3 0 23 13 41 18 25 2 -6 -1 -18 -7 -28z m78 -99 c-13
-131 0 -317 20 -285 4 6 11 3 18 -8 10 -16 8 -17 -12 -13 -20 3 -25 14 -35 70
-12 63 -8 258 6 325 12 55 14 18 3 -89z m2019 109 c-10 -2 -26 -2 -35 0 -10 3
-2 5 17 5 19 0 27 -2 18 -5z m-2134 -9 c23 -9 20 -24 -4 -24 -11 0 -20 7 -20
15 0 17 2 18 24 9z m101 -4 c-3 -5 -12 -10 -18 -10 -7 0 -6 4 3 10 19 12 23
12 15 0z m502 -12 c-3 -8 -6 -5 -6 6 -1 11 2 17 5 13 3 -3 4 -12 1 -19z m2170
-15 c-3 -10 -5 -4 -5 12 0 17 2 24 5 18 2 -7 2 -21 0 -30z m-659 20 c-15 -2
-42 -2 -60 0 -18 2 -6 4 27 4 33 0 48 -2 33 -4z m127 -11 c-3 -3 -11 0 -18 7
-9 10 -8 11 6 5 10 -3 15 -9 12 -12z m512 -44 c-2 -13 -4 -3 -4 22 0 25 2 35
4 23 2 -13 2 -33 0 -45z m199 -16 c-13 -12 -18 9 -10 45 l8 38 4 -39 c2 -21 1
-41 -2 -44z m-3405 42 c6 -18 4 -20 -19 -16 -34 7 -57 28 -39 36 24 10 50 1
58 -20z m2583 10 c17 -7 21 -41 8 -62 -6 -9 -24 -11 -65 -6 -77 9 -73 23 6 18
44 -3 55 -1 37 5 -14 5 -41 10 -60 12 -29 2 -25 3 20 9 l55 7 -45 3 c-42 2
-43 3 -15 10 42 11 42 11 59 4z m793 -41 c-3 -10 -5 -2 -5 17 0 19 2 27 5 18
2 -10 2 -26 0 -35z m-3060 -55 c-2 -18 -4 -4 -4 32 0 36 2 50 4 33 2 -18 2
-48 0 -65z m1412 58 c-3 -3 -11 5 -18 17 -13 21 -12 21 5 5 10 -10 16 -20 13
-22z m1528 -33 c-2 -16 -4 -5 -4 22 0 28 2 40 4 28 2 -13 2 -35 0 -50z m103
37 c0 -16 -4 -30 -8 -30 -5 0 -7 14 -4 30 2 17 6 30 8 30 2 0 4 -13 4 -30z
m-2879 -7 c-8 -31 -31 -43 -31 -16 0 19 18 43 31 43 4 0 4 -12 0 -27z m46 21
c-3 -3 -12 -4 -19 -1 -8 3 -5 6 6 6 11 1 17 -2 13 -5z m296 -4 c-50 -5 -96
-11 -102 -15 -6 -3 -11 -2 -11 4 0 13 38 18 130 18 l75 0 -92 -7z m-453 -72
c0 -51 -3 -68 -10 -58 -13 20 -13 130 0 130 6 0 10 -31 10 -72z m2957 40 c-3
-8 -6 -5 -6 6 -1 11 2 17 5 13 3 -3 4 -12 1 -19z m-2901 1 c10 -17 -13 -36
-27 -22 -12 12 -4 33 11 33 5 0 12 -5 16 -11z m114 2 c0 -5 -7 -11 -15 -15 -9
-3 -15 0 -15 9 0 8 7 15 15 15 8 0 15 -4 15 -9z m1200 -11 c0 -5 -2 -10 -4
-10 -3 0 -8 5 -11 10 -3 6 -1 10 4 10 6 0 11 -4 11 -10z m-88 -25 c3 -14 1
-28 -3 -31 -5 -3 -9 9 -9 25 0 38 6 40 12 6z m-22 -20 c0 -19 -4 -35 -9 -35
-11 0 -24 48 -16 60 13 21 25 8 25 -25z m867 29 c-3 -3 -12 -4 -19 -1 -8 3 -5
6 6 6 11 1 17 -2 13 -5z m76 -11 c-7 -2 -21 -2 -30 0 -10 3 -4 5 12 5 17 0 24
-2 18 -5z m352 -18 c73 -22 128 -56 136 -85 l7 -25 2 25 2 25 8 -25 c4 -14 8
-37 9 -52 1 -25 -1 -27 -23 -18 -13 5 -33 8 -43 8 -25 -2 -301 91 -309 104 -4
7 -2 8 4 4 7 -4 12 -3 12 3 0 5 -4 13 -10 16 -20 12 -10 34 18 37 47 7 135 -1
187 -17z m-2455 0 c0 -9 -7 -18 -16 -22 -18 -7 -39 11 -30 26 11 17 46 13 46
-4z m70 5 c0 -5 -7 -10 -16 -10 -8 0 -12 5 -9 10 3 6 10 10 16 10 5 0 9 -4 9
-10z m423 3 c-7 -2 -19 -2 -25 0 -7 3 -2 5 12 5 14 0 19 -2 13 -5z m-933 -13
c11 -8 7 -9 -15 -4 -37 8 -45 14 -19 14 10 0 26 -5 34 -10z m80 -59 c-1 -13
-29 45 -29 59 0 8 6 0 14 -19 8 -18 15 -36 15 -40z m-88 38 c71 -18 58 -32
-42 -43 -25 -2 -56 -8 -70 -11 -20 -6 -19 -3 9 15 29 18 44 21 85 16 42 -4 46
-3 26 5 -14 6 -43 9 -66 6 -32 -3 -43 0 -53 15 -11 17 -9 18 31 12 24 -3 60
-10 80 -15z m2563 0 c13 -13 -23 -10 -70 6 l-40 14 50 -6 c28 -3 54 -9 60 -14z
m-2444 -21 c17 -24 18 -29 6 -19 -18 14 -42 51 -33 51 3 0 15 -15 27 -32z m99
-55 c0 -10 -63 45 -76 66 -10 16 1 9 30 -19 25 -24 46 -46 46 -47z m280 57
c-20 -13 -43 -13 -35 0 3 6 16 10 28 10 18 0 19 -2 7 -10z m2078 -5 c2 -2 -4
-18 -13 -35 -9 -18 -15 -46 -13 -61 3 -19 -1 -34 -12 -44 -15 -13 -22 -13 -66
1 -53 18 -87 41 -44 30 25 -6 25 -6 3 5 -27 14 -31 49 -5 49 9 0 34 -5 55 -11
22 -6 41 -8 44 -5 3 2 -15 10 -39 17 -23 7 -47 17 -53 22 -10 9 0 8 81 -8 16
-3 3 5 -28 17 -32 12 -58 26 -58 30 0 7 139 0 148 -7z m549 -82 c-2 -21 -4 -6
-4 32 0 39 2 55 4 38 2 -18 2 -50 0 -70z m-2802 35 l40 -43 -45 40 c-25 22
-47 41 -49 43 -2 1 0 2 5 2 6 0 28 -19 49 -42z m2832 10 c-3 -7 -5 -2 -5 12 0
14 2 19 5 13 2 -7 2 -19 0 -25z m-2961 -36 c68 -35 184 -112 169 -112 -5 0
-30 14 -55 30 -25 17 -91 53 -147 81 -57 28 -103 53 -103 54 0 7 76 -23 136
-53z m244 48 c0 -5 -4 -10 -10 -10 -5 0 -10 5 -10 10 0 6 5 10 10 10 6 0 10
-4 10 -10z m1470 -4 c0 -25 -22 -72 -27 -58 -3 7 1 19 7 27 7 8 10 22 6 30 -3
8 -1 15 4 15 6 0 10 -6 10 -14z m-1410 -6 c-8 -5 -19 -10 -25 -10 -5 0 -3 5 5
10 8 5 20 10 25 10 6 0 3 -5 -5 -10z m-570 -9 c0 -8 53 -25 76 -24 17 1 10
-30 -7 -35 -10 -2 -10 -1 -2 5 6 5 -7 8 -34 9 -51 1 -89 28 -63 44 19 12 30
13 30 1z m1692 -46 c3 -14 1 -25 -3 -25 -5 0 -9 11 -9 25 0 14 2 25 4 25 2 0
6 -11 8 -25z m-1526 1 c3 -8 4 -23 2 -33 -3 -13 -7 -9 -15 15 -12 31 1 48 13
18z m42 -56 c0 -22 -1 -22 -8 5 -4 17 -8 39 -8 50 0 16 2 15 8 -5 4 -14 8 -36
8 -50z m-130 35 c29 0 28 -3 -4 -16 -31 -11 -60 -4 -68 17 -4 11 0 13 22 7 15
-4 37 -7 50 -8z m159 -52 c-2 -16 -4 -5 -4 22 0 28 2 40 4 28 2 -13 2 -35 0
-50z m320 45 c-3 -8 -6 -5 -6 6 -1 11 2 17 5 13 3 -3 4 -12 1 -19z m30 -10
c-3 -7 -5 -2 -5 12 0 14 2 19 5 13 2 -7 2 -19 0 -25z m2274 -11 c68 -31 115
-71 175 -148 39 -51 43 -61 34 -84 l-10 -26 -30 23 c-17 13 -45 33 -63 45
-141 97 -175 122 -204 150 -29 27 -48 73 -24 58 6 -3 16 1 23 8 7 8 19 11 28
7 8 -4 40 -19 71 -33z m-2361 23 c0 -5 -2 -10 -4 -10 -3 0 -8 5 -11 10 -3 6
-1 10 4 10 6 0 11 -4 11 -10z m2667 -12 c-3 -8 -6 -5 -6 6 -1 11 2 17 5 13 3
-3 4 -12 1 -19z m-2811 -30 c35 -23 62 -44 60 -46 -3 -2 -35 17 -73 42 -37 25
-64 46 -59 46 4 0 37 -19 72 -42z m2208 -3 c15 -3 26 -8 23 -11 -6 -7 -137 27
-137 36 0 17 14 17 48 -1 20 -10 50 -21 66 -24z m-2297 -98 c-2 -23 -3 -1 -3
48 0 50 1 68 3 42 2 -26 2 -67 0 -90z m303 73 c0 -20 -2 -22 -10 -10 -5 8 -10
26 -10 40 0 20 2 22 10 10 5 -8 10 -26 10 -40z m2153 11 c15 -22 36 -42 47
-46 12 -4 20 -9 17 -11 -7 -8 -95 28 -101 41 -4 12 2 55 9 55 1 0 14 -18 28
-39z m-2555 15 c41 -21 59 -47 65 -94 6 -49 3 -51 -103 -55 l-64 -2 -20 67
c-16 55 -17 70 -6 82 16 20 91 21 128 2z m429 -18 c-3 -7 -5 -2 -5 12 0 14 2
19 5 13 2 -7 2 -19 0 -25z m921 -56 c24 -21 24 -22 3 -10 -14 8 -40 34 -59 59
-30 39 -31 40 -3 9 17 -19 43 -45 59 -58z m1493 5 c69 -90 66 -88 -32 17 -42
46 -53 62 -32 48 17 -12 46 -41 64 -65z m-1402 -1 c19 -11 53 -25 75 -32 23
-7 32 -13 21 -13 -33 -1 -138 55 -170 91 l-30 33 35 -30 c19 -17 50 -39 69
-49z m396 34 c-10 -11 -34 -29 -54 -41 -32 -18 -31 -16 14 24 50 45 75 55 40
17z m-1475 7 c0 -8 -9 -22 -20 -32 -19 -18 -20 -17 -20 1 0 20 17 44 32 44 4
0 8 -6 8 -13z m-243 -34 c-3 -10 -5 -4 -5 12 0 17 2 24 5 18 2 -7 2 -21 0 -30z
m1662 34 c-2 -1 -15 -11 -29 -22 l-25 -20 19 23 c11 12 24 22 29 22 6 0 8 -1
6 -3z m1072 -14 c13 -16 12 -17 -3 -4 -17 13 -22 21 -14 21 2 0 10 -8 17 -17z
m77 -79 c6 -19 6 -34 1 -34 -5 0 -9 8 -9 18 0 9 -11 37 -25 62 -25 45 -25 45
-1 17 13 -16 28 -44 34 -63z m190 29 c-7 -36 -16 -53 -26 -53 -10 0 -12 4 -5
13 5 6 15 32 22 55 17 59 22 50 9 -15z m-2970 -55 c-1 -72 -4 -94 -9 -73 -8
26 -1 175 7 175 2 0 3 -46 2 -102z m38 44 c-12 -11 -17 7 -9 34 l8 29 3 -28
c2 -16 1 -31 -2 -35z m2834 -19 c-9 -15 -10 -12 -6 16 3 18 7 41 8 50 0 9 3 1
5 -16 2 -18 -1 -41 -7 -50z m36 21 c-4 -18 -10 -34 -15 -34 -4 0 -3 20 3 45
12 52 22 43 12 -11z m-97 -38 c-9 -8 -10 -5 -5 14 3 14 7 34 7 45 1 11 4 5 6
-14 3 -19 -1 -39 -8 -45z m38 52 c-3 -8 -6 -5 -6 6 -1 11 2 17 5 13 3 -3 4
-12 1 -19z m-2767 -8 c0 -5 -2 -10 -4 -10 -3 0 -8 5 -11 10 -3 6 -1 10 4 10 6
0 11 -4 11 -10z m280 -11 c8 -1 -10 -5 -40 -8 -50 -5 -69 0 -70 20 0 3 21 2
48 -2 26 -4 54 -9 62 -10z m2567 -1 c-3 -8 -6 -5 -6 6 -1 11 2 17 5 13 3 -3 4
-12 1 -19z m-2950 -10 c-3 -8 -6 -5 -6 6 -1 11 2 17 5 13 3 -3 4 -12 1 -19z
m223 7 c-7 -9 -15 -13 -19 -10 -3 3 1 10 9 15 21 14 24 12 10 -5z m1385 5 c-3
-5 -16 -15 -28 -21 -21 -10 -21 -9 2 10 25 23 36 27 26 11z m-1866 -27 c11
-22 10 -23 -25 -23 l-37 0 23 25 c13 14 24 24 25 22 1 -1 8 -12 14 -24z m406
7 c-3 -5 -12 -10 -18 -10 -7 0 -6 4 3 10 19 12 23 12 15 0z m2895 -10 c0 -11
-4 -20 -9 -20 -5 0 -7 9 -4 20 3 11 7 20 9 20 2 0 4 -9 4 -20z m39 3 c1 24 21
11 21 -14 0 -12 -7 -19 -19 -19 -25 0 -33 13 -24 36 6 16 7 16 14 -2 7 -17 8
-17 8 -1z m-2829 3 c0 -2 -7 -9 -15 -16 -12 -10 -15 -10 -15 4 0 9 7 16 15 16
8 0 15 -2 15 -4z m-273 -48 c-3 -7 -5 -2 -5 12 0 14 2 19 5 13 2 -7 2 -19 0
-25z m2203 -19 c0 -5 -5 -9 -10 -9 -11 0 -110 48 -110 53 0 2 27 -5 60 -16 33
-11 60 -24 60 -28z m349 -35 c48 -101 53 -125 9 -39 -37 72 -60 125 -54 125 3
0 23 -39 45 -86z m47 -51 c-5 -5 -42 74 -50 107 -3 14 8 -4 24 -39 17 -35 29
-66 26 -68z m409 117 c-3 -5 -16 -10 -28 -10 -18 0 -19 2 -7 10 20 13 43 13
35 0z m-3051 -65 l6 -40 -14 35 c-17 40 -21 85 -7 60 5 -8 12 -33 15 -55z
m123 43 c-3 -8 -6 -5 -6 6 -1 11 2 17 5 13 3 -3 4 -12 1 -19z m57 -13 c5 -22
4 -26 -4 -15 -5 8 -10 24 -10 34 0 26 6 18 14 -19z m74 18 c-4 -22 -38 -30
-49 -11 -5 8 -2 15 9 20 30 12 44 9 40 -9z m1771 -39 c-14 -17 -20 -17 -43 -1
-13 10 -16 20 -11 35 l6 22 30 -21 c24 -17 27 -24 18 -35z m631 -13 c11 -29
19 -55 17 -58 -4 -3 -57 112 -57 125 0 16 21 -18 40 -67z m447 63 c-3 -3 -12
-4 -19 -1 -8 3 -5 6 6 6 11 1 17 -2 13 -5z m-3490 -26 c-3 -8 -6 -5 -6 6 -1
11 2 17 5 13 3 -3 4 -12 1 -19z m36 -62 c3 -32 2 -55 -2 -50 -5 5 -11 38 -14
74 -3 36 -2 58 2 50 5 -8 11 -42 14 -74z m14 37 c-3 -10 -5 -2 -5 17 0 19 2
27 5 18 2 -10 2 -26 0 -35z m312 -32 c2 -31 -18 6 -23 44 l-6 40 14 -35 c8
-19 15 -42 15 -49z m2226 44 c6 -1 15 -3 22 -3 7 -1 10 -9 7 -17 -5 -13 -9
-13 -32 0 -15 8 -38 24 -52 35 l-25 21 35 -17 c19 -10 40 -19 45 -19z m960 25
c7 -12 -2 -12 -30 0 -19 8 -19 9 2 9 12 1 25 -3 28 -9z m-3330 -10 c3 -5 25
-18 48 -28 23 -10 49 -27 57 -37 9 -11 10 -16 3 -11 -7 4 -34 9 -60 11 -64 5
-161 27 -145 33 13 4 111 -12 151 -25 14 -4 14 -3 1 6 -8 6 -39 18 -69 27 -38
12 -50 19 -40 25 19 12 46 11 54 -1z m2165 -64 c0 -4 -18 7 -40 24 -22 17 -38
35 -35 40 5 8 75 -51 75 -64z m703 -26 c6 -44 5 -43 -14 15 -22 69 -24 91 -5
55 7 -14 16 -45 19 -70z m-2646 48 c-3 -7 -5 -2 -5 12 0 14 2 19 5 13 2 -7 2
-19 0 -25z m2162 -33 c0 -5 -17 -29 -37 -53 l-38 -42 -21 29 -22 29 22 -6 c19
-5 18 -2 -8 22 -16 16 -23 24 -15 18 18 -13 70 -33 70 -28 0 2 -20 16 -45 30
-56 33 -59 44 -4 15 23 -11 38 -15 33 -8 -5 9 -2 10 9 6 44 -18 49 -17 19 2
-36 23 -46 26 -37 11 10 -17 -8 -11 -35 11 -21 17 -22 19 -3 10 31 -15 38 -14
22 5 -8 10 8 5 39 -12 28 -16 52 -33 51 -39z m108 33 c-3 -7 -5 -2 -5 12 0 14
2 19 5 13 2 -7 2 -19 0 -25z m-359 -49 c-6 -18 -58 34 -58 58 0 14 6 11 31
-14 17 -17 29 -37 27 -44z m532 -8 c31 -32 72 -89 92 -126 32 -60 37 -65 43
-45 6 18 9 20 16 9 5 -8 9 -18 9 -24 0 -5 -5 -3 -10 5 -8 13 -10 12 -10 -2 0
-12 8 -18 24 -18 34 0 38 -11 15 -47 l-20 -32 -33 20 c-54 32 -212 191 -235
236 -32 65 -29 83 16 83 33 0 45 -8 93 -59z m-2873 2 c-3 -10 -5 -2 -5 17 0
19 2 27 5 18 2 -10 2 -26 0 -35z m2303 -6 c0 -6 -11 0 -25 13 -14 13 -25 28
-25 33 0 6 11 0 25 -13 14 -13 25 -28 25 -33z m-2105 27 l50 -13 -60 5 c-33 3
-67 10 -75 15 -23 13 26 10 85 -7z m2524 -27 c1 -5 -3 -5 -9 -2 -5 3 -10 16
-9 28 0 21 1 21 9 2 5 -11 9 -24 9 -28z m-2672 -4 c-3 -10 -5 -4 -5 12 0 17 2
24 5 18 2 -7 2 -21 0 -30z m2221 -3 l16 -25 -29 25 c-17 14 -32 27 -35 29 -3
2 3 2 14 0 10 -2 26 -15 34 -29z m829 -12 c-3 -7 -5 -2 -5 12 0 14 2 19 5 13
2 -7 2 -19 0 -25z m139 -6 c-8 -16 -12 -33 -8 -37 4 -5 2 -5 -5 -1 -9 5 -8 15
4 41 9 19 18 33 21 31 2 -2 -3 -17 -12 -34z m29 8 c-9 -16 -18 -30 -21 -30 -2
0 2 14 11 30 9 17 18 30 21 30 2 0 -2 -13 -11 -30z m-1071 -7 c4 -5 17 -8 29
-8 12 0 22 -4 22 -10 0 -5 -3 -9 -7 -8 -4 2 -12 -7 -19 -18 -11 -21 -11 -21
-30 7 -21 32 -24 44 -11 44 5 0 12 -3 16 -7z m218 -76 c8 -27 9 -44 1 -55 -11
-19 -81 -62 -100 -62 -6 0 -18 21 -27 47 -20 59 -20 64 4 33 l19 -25 -3 39
c-2 34 -1 36 11 20 12 -16 13 -15 14 12 l1 29 14 -30 15 -30 -6 40 -5 40 20
-37 c26 -48 35 -49 15 -2 -8 20 -15 42 -15 48 1 20 30 -27 42 -67z m-233 8 c0
-5 -6 1 -14 15 -8 14 -14 30 -14 35 0 6 6 -1 14 -15 8 -14 14 -29 14 -35z
m928 3 c-2 -13 -4 -5 -4 17 -1 22 1 32 4 23 2 -10 2 -28 0 -40z m-982 12 c17
-34 18 -40 6 -40 -5 0 -11 8 -14 18 -2 9 -8 25 -12 35 -12 28 3 19 20 -13z
m34 -25 c0 -5 -6 1 -14 15 -8 14 -14 30 -14 35 0 6 6 -1 14 -15 8 -14 14 -29
14 -35z m998 -22 c-2 -16 -4 -5 -4 22 0 28 2 40 4 28 2 -13 2 -35 0 -50z
m-688 7 c0 -10 -3 -8 -9 5 -12 27 -12 43 0 25 5 -8 9 -22 9 -30z m797 -19
c-19 -60 -20 -78 -1 -36 11 23 14 26 15 10 0 -15 2 -17 9 -7 7 11 9 10 14 -3
5 -11 3 -14 -5 -9 -7 5 -9 2 -6 -8 12 -30 -5 -38 -52 -22 -57 19 -65 28 -50
51 10 16 11 16 6 1 -8 -28 2 -21 25 15 18 28 20 29 14 7 -5 -22 -4 -23 5 -7 7
10 9 25 6 33 -3 8 -2 13 3 10 5 -3 12 1 15 10 4 9 9 14 13 11 3 -4 -2 -29 -11
-56z m-1157 6 c0 -27 -2 -29 -9 -12 -7 16 -9 11 -9 -20 0 -22 4 -49 9 -60 8
-17 9 -16 11 10 1 24 3 26 6 8 2 -13 9 -23 14 -23 5 0 7 12 4 28 l-6 27 15
-30 c8 -16 15 -24 15 -17 1 7 6 10 12 6 8 -4 9 4 5 27 l-6 34 12 -30 12 -30 7
30 c6 26 7 24 8 -16 1 -61 -21 -82 -89 -83 -49 -1 -50 -1 -56 32 -4 18 -4 36
0 39 3 4 6 -3 6 -15 0 -12 5 -22 11 -22 15 0 -1 93 -19 106 -17 12 -8 34 14
34 8 0 14 5 14 11 0 5 5 7 10 4 6 -3 10 -21 9 -38z m576 -44 c21 -49 44 -114
51 -146 8 -32 23 -75 34 -96 19 -38 19 -39 0 -56 -11 -10 -23 -15 -27 -12 -3
4 0 7 7 7 7 0 -6 13 -28 30 -99 72 -165 286 -106 345 9 8 19 15 23 15 4 0 25
-39 46 -87z m300 51 c8 -20 15 -39 15 -43 -1 -8 -39 61 -40 72 -1 18 11 4 25
-29z m-1256 -7 c2 33 21 39 22 6 l1 -28 8 25 c8 24 8 23 9 -7 1 -18 -7 -49
-16 -68 -16 -34 -20 -36 -51 -30 -19 3 -46 11 -61 17 l-26 10 28 12 c15 7 24
15 21 19 -4 4 -2 7 4 7 7 0 12 14 12 31 0 16 4 28 9 24 5 -3 13 0 18 7 5 9 10
3 14 -17 5 -22 7 -24 8 -8z m1558 1 c-3 -8 -6 -5 -6 6 -1 11 2 17 5 13 3 -3 4
-12 1 -19z m-1243 -4 c4 -9 0 -24 -9 -34 -8 -9 -15 -29 -15 -45 0 -16 -3 -26
-6 -23 -8 9 7 118 16 118 4 0 11 -7 14 -16z m213 -6 c-3 -8 -6 -5 -6 6 -1 11
2 17 5 13 3 -3 4 -12 1 -19z m867 -10 c4 -17 2 -28 -4 -28 -5 0 -10 14 -10 32
0 36 4 35 14 -4z m-1529 -62 c8 -75 -6 -110 -60 -151 -29 -23 -164 -85 -183
-85 -3 0 12 19 35 43 46 46 173 242 173 265 0 11 3 12 14 3 8 -7 18 -40 21
-75z m225 44 c-4 -23 -11 -44 -15 -48 -5 -4 -5 1 -2 11 4 10 7 32 7 48 0 16 4
29 9 29 4 0 5 -18 1 -40z m27 -42 c-2 -18 -4 -6 -4 27 0 33 2 48 4 33 2 -15 2
-42 0 -60z m47 32 c4 19 10 29 13 23 8 -20 21 -15 26 10 4 22 4 22 15 -3 8
-18 11 -20 11 -7 1 26 28 20 35 -8 15 -58 -19 -115 -68 -115 -38 1 -84 24 -67
34 6 4 12 33 13 64 l1 57 6 -45 6 -45 9 35z m1253 -2 c-3 -8 -6 -5 -6 6 -1 11
2 17 5 13 3 -3 4 -12 1 -19z m-990 -10 c-3 -8 -6 -5 -6 6 -1 11 2 17 5 13 3
-3 4 -12 1 -19z m120 -20 c-3 -8 -6 -5 -6 6 -1 11 2 17 5 13 3 -3 4 -12 1 -19z
m1044 -21 c-16 -16 -26 0 -10 19 9 11 15 12 17 4 2 -6 -1 -17 -7 -23z m38 12
c-11 -22 -29 -34 -29 -20 0 5 5 13 10 16 6 4 8 10 6 14 -3 4 1 8 9 8 10 0 11
-5 4 -18z m-925 -98 c14 -42 28 -112 31 -156 4 -44 11 -96 16 -115 7 -28 6
-37 -8 -47 -27 -21 -32 -16 -64 51 -46 98 -63 250 -38 341 10 36 12 38 25 21
7 -11 24 -53 38 -95z m426 67 c6 -24 15 -50 20 -60 6 -11 5 -18 -4 -21 -10 -4
-15 8 -19 41 -3 26 -9 55 -12 65 -4 9 -5 17 -1 17 3 0 10 -19 16 -42z m530 35
c-1 -14 -30 -47 -36 -41 -3 3 3 16 13 27 19 23 23 25 23 14z m-582 -68 c0 -16
-2 -15 -8 5 -11 34 -11 60 0 35 5 -11 8 -29 8 -40z m-994 -24 c-12 -95 -59
-158 -179 -239 -60 -41 -85 -40 -47 1 28 31 88 144 103 196 8 28 21 47 36 54
13 5 23 15 23 22 0 23 21 34 46 23 21 -10 23 -16 18 -57z m1576 49 c-6 -11
-13 -20 -16 -20 -2 0 0 9 6 20 6 11 13 20 16 20 2 0 0 -9 -6 -20z m-553 -62
c-2 -13 -4 -5 -4 17 -1 22 1 32 4 23 2 -10 2 -28 0 -40z m-1427 11 c-27 -21
-71 -47 -55 -32 19 18 68 53 74 53 3 0 -5 -9 -19 -21z m754 1 c18 0 19 -7 13
-147 -4 -101 -11 -162 -22 -193 -9 -25 -17 -50 -17 -55 -1 -6 -11 -12 -22 -13
-17 -1 -25 9 -39 47 -9 27 -17 63 -17 81 0 45 29 211 41 233 6 10 7 28 3 39
-5 18 -3 20 17 15 13 -4 33 -7 43 -7z m-744 -14 c0 -2 -8 -10 -17 -17 -16 -13
-17 -12 -4 4 13 16 21 21 21 13z m1630 -76 c-34 -39 -75 -80 -91 -91 -16 -11
-27 -25 -24 -29 8 -13 -56 10 -87 32 -26 18 -60 78 -73 128 -3 14 5 3 19 -23
24 -49 76 -111 84 -102 3 2 1 10 -4 18 -5 7 -1 4 9 -6 16 -19 17 -19 18 -1 1
17 2 17 6 2 6 -22 14 -22 39 -2 10 8 12 13 4 9 -8 -3 1 6 20 22 19 15 57 49
85 75 27 25 52 45 54 43 2 -3 -24 -36 -59 -75z m-479 -97 l-10 -128 4 122 c1
68 -1 121 -5 118 -4 -2 -5 7 -2 22 4 20 7 22 13 10 5 -9 5 -71 0 -144z m-1432
92 c0 -5 -4 -3 -9 5 -5 8 -9 22 -9 30 0 16 17 -16 18 -35z m31 20 c0 -14 -4
-25 -10 -25 -5 0 -10 11 -10 25 0 14 5 25 10 25 6 0 10 -11 10 -25z m21 -16
l-10 -24 0 26 c-1 14 2 29 6 33 12 12 14 -9 4 -35z m54 21 c-3 -5 3 -10 14
-10 18 0 15 -5 -17 -34 -40 -36 -101 -136 -83 -136 6 0 17 12 25 28 17 31 20
25 6 -12 -13 -34 -5 -33 15 2 l15 27 -6 -29 c-5 -20 -4 -27 5 -22 7 4 11 0 11
-11 0 -13 6 -9 21 15 24 36 36 43 18 10 -23 -43 -38 -119 -29 -144 11 -29 0
-31 -25 -4 -10 11 -23 20 -28 20 -5 0 11 -19 37 -41 51 -45 55 -59 9 -36 -33
18 -80 77 -61 77 8 1 5 7 -7 16 -22 16 -26 35 -10 46 6 5 3 8 -7 8 -23 0 -24
40 -3 81 15 28 15 30 -10 39 -36 14 -31 30 8 23 28 -4 37 -1 54 21 13 16 19
35 16 49 -3 16 -2 18 5 9 7 -11 10 -11 15 2 4 9 9 16 12 16 4 0 3 -4 0 -10z
m115 6 c0 -2 -7 -7 -16 -10 -8 -3 -12 -2 -9 4 6 10 25 14 25 6z m275 -6 c-3
-5 -16 -10 -28 -9 -21 0 -21 1 -2 9 28 12 37 12 30 0z m1209 -16 c5 -14 4 -15
-9 -4 -17 14 -19 20 -6 20 5 0 12 -7 15 -16z m-1524 1 c0 -2 -10 -10 -22 -16
-21 -11 -22 -11 -9 4 13 16 31 23 31 12z m1229 -45 c0 -10 -3 -8 -9 5 -12 27
-12 43 0 25 5 -8 9 -22 9 -30z m-262 -47 c-2 -16 -4 -3 -4 27 0 30 2 43 4 28
2 -16 2 -40 0 -55z m660 55 c-3 -8 -6 -5 -6 6 -1 11 2 17 5 13 3 -3 4 -12 1
-19z m-1453 -19 c-20 -39 -93 -119 -108 -119 -6 0 -3 5 6 11 22 12 39 43 43
75 l2 23 -27 -19 c-37 -26 -50 -26 -17 0 19 15 94 54 115 59 1 1 -5 -13 -14
-30z m1103 -46 c-2 -16 -4 -3 -4 27 0 30 2 43 4 28 2 -16 2 -40 0 -55z m-787
57 c0 -5 -5 -10 -11 -10 -5 0 -7 5 -4 10 3 6 8 10 11 10 2 0 4 -4 4 -10z
m-762 -67 c50 -60 48 -70 -4 -26 -24 21 -70 93 -57 92 4 0 32 -30 61 -66z
m1625 12 c4 -34 3 -42 -3 -25 -8 25 -13 87 -6 79 2 -2 6 -26 9 -54z m-1854 28
c-11 -13 -11 -17 -1 -20 6 -3 10 -8 8 -12 -3 -4 2 -8 10 -8 9 0 13 6 9 16 -5
13 -4 13 6 4 10 -10 8 -18 -11 -38 -21 -22 -25 -23 -40 -10 -9 8 -19 13 -22
10 -3 -3 -13 6 -22 19 -14 23 -8 45 8 29 14 -14 38 -12 32 3 -3 8 -2 12 3 9 5
-3 12 -1 16 5 3 5 9 10 12 10 3 0 -1 -7 -8 -17z m2226 -23 c-21 -22 -43 -40
-48 -40 -9 0 73 79 83 80 2 0 -14 -18 -35 -40z m-2057 -6 c-4 -3 -12 5 -18 18
-12 22 -12 22 6 6 10 -10 15 -20 12 -24z m1559 -71 c-2 -21 -4 -4 -4 37 0 41
2 58 4 38 2 -21 2 -55 0 -75z m253 94 c0 -2 -10 -12 -21 -23 -22 -19 -22 -19
-8 4 12 19 29 30 29 19z m-1224 -22 c-11 -8 -27 -15 -35 -15 -10 1 -7 6 9 15
33 19 50 18 26 0z m334 10 c0 -2 -13 -37 -29 -78 -16 -40 -34 -92 -40 -115
-10 -36 -16 -42 -39 -42 -22 0 -24 -2 -12 -11 13 -9 13 -10 0 -6 -20 6 -19 9
33 102 24 44 50 97 58 118 7 20 17 37 21 37 4 0 8 -2 8 -5z m1100 0 c0 -2 -13
-11 -30 -20 -38 -19 -40 -11 -2 9 31 17 32 18 32 11z m131 -12 c13 -16 12 -17
-3 -4 -10 7 -18 15 -18 17 0 8 8 3 21 -13z m-1711 3 c0 -2 -8 -10 -17 -17 -16
-13 -17 -12 -4 4 13 16 21 21 21 13z m430 -5 c0 -5 -9 -7 -20 -4 -11 3 -20 7
-20 9 0 2 9 4 20 4 11 0 20 -4 20 -9z m651 -1 c1 8 5 -9 9 -38 5 -31 20 -71
36 -95 27 -41 28 -42 35 -17 6 22 7 22 8 -9 1 -33 2 -34 16 -15 14 18 14 18
15 -8 0 -15 -5 -30 -11 -34 -11 -6 -93 66 -109 96 -12 24 -23 138 -11 120 10
-13 11 -13 12 0z m106 -22 c-3 -8 -6 -5 -6 6 -1 11 2 17 5 13 3 -3 4 -12 1
-19z m501 12 c-2 -21 4 -30 15 -24 6 4 9 4 5 -1 -4 -4 -1 -13 7 -19 14 -10 14
-14 0 -34 -9 -12 -20 -22 -24 -22 -5 0 -29 17 -54 37 -40 33 -44 39 -32 53 12
13 84 22 83 10z m-1728 -14 c0 -2 -8 -10 -17 -17 -16 -13 -17 -12 -4 4 13 16
21 21 21 13z m171 -5 c-12 -8 -51 -4 -51 5 0 2 15 4 33 4 22 0 28 -3 18 -9z
m280 -6 c0 -5 -9 -11 -21 -13 -20 -3 -27 8 -13 22 10 9 34 3 34 -9z m-362 -69
c-9 -8 -10 -5 -5 14 3 14 6 32 7 40 1 8 4 2 6 -14 3 -16 -1 -34 -8 -40z m456
39 c-39 -32 -54 -32 -18 0 15 13 33 24 38 25 6 0 -3 -11 -20 -25z m-413 -14
c-18 -18 -28 -10 -18 14 3 8 12 12 20 9 12 -5 12 -8 -2 -23z m-172 15 c0 -3
-4 -8 -10 -11 -5 -3 -10 -1 -10 4 0 6 5 11 10 11 6 0 10 -2 10 -4z m107 -63
c-3 -2 -17 -3 -32 -1 l-28 3 29 29 29 29 3 -28 c2 -15 1 -29 -1 -32z m361 45
c-6 -16 -36 -34 -44 -26 -3 4 -4 14 -1 23 7 17 51 21 45 3z m-234 -40 c-10
-18 -25 -55 -35 -83 -23 -62 -25 -34 -3 32 14 42 39 83 51 83 2 0 -4 -15 -13
-32z m1224 -5 c-14 -17 -32 -17 -21 0 4 6 8 15 9 20 1 4 2 10 3 15 1 4 5 0 11
-8 5 -9 5 -19 -2 -27z m-568 -139 c11 -18 11 -18 5 0 -3 11 -8 47 -10 80 l-4
61 9 -58 c5 -32 14 -65 20 -75 9 -14 10 -13 6 8 -13 69 -14 106 -6 120 7 11
10 0 10 -37 0 -82 19 -154 38 -151 10 2 20 8 24 13 5 6 8 3 8 -6 0 -10 -15
-20 -42 -28 -41 -13 -43 -12 -64 14 -38 48 -52 122 -37 196 6 30 8 26 19 -42
6 -42 17 -85 24 -95z m-889 111 c-19 -54 -10 -75 40 -91 19 -6 35 -19 37 -28
5 -26 -16 -19 -65 21 -40 33 -44 40 -39 67 6 27 31 76 40 76 2 0 -4 -20 -13
-45z m1430 32 c-6 -8 -8 -16 -5 -19 7 -8 -91 -78 -107 -77 -8 0 -5 4 6 8 11 5
20 13 20 20 0 6 18 27 40 46 40 34 67 47 46 22z m-1257 -46 c-7 -27 -10 -59
-7 -70 7 -26 32 -28 39 -3 14 43 27 72 30 69 2 -2 -1 -18 -7 -35 -6 -17 -9
-39 -6 -49 3 -15 6 -14 15 7 10 23 11 21 11 -23 1 -35 -3 -49 -15 -54 -13 -5
-13 -8 -2 -15 9 -7 5 -8 -12 -4 -14 3 -35 6 -47 6 -13 0 -23 4 -23 10 0 5 15
7 33 5 28 -4 27 -3 -7 6 l-38 12 6 46 c13 92 16 85 -42 92 -29 4 -56 10 -60
14 -4 3 16 3 43 0 42 -6 54 -4 75 14 14 11 25 20 26 21 1 0 -5 -22 -12 -49z
m377 35 c-24 -28 -29 -73 -17 -145 7 -39 14 -73 17 -75 3 -3 5 28 6 69 1 41 5
81 10 89 4 8 7 -30 7 -87 -1 -80 0 -89 5 -42 l6 60 7 -70 c7 -74 -1 -95 -33
-95 -13 0 -21 12 -29 43 -6 23 -15 58 -21 77 -19 72 -10 128 29 173 18 20 30
23 13 3z m399 -17 c0 -5 -4 -9 -10 -9 -5 0 -10 7 -10 16 0 8 5 12 10 9 6 -3
10 -10 10 -16z m361 -39 c5 0 10 8 10 18 1 15 2 15 6 0 2 -9 -5 -26 -16 -37
l-21 -21 2 53 c1 35 2 42 5 20 2 -18 8 -33 14 -33z m-755 8 c-8 -30 -12 -36
-14 -21 -3 19 13 63 22 63 2 0 -2 -19 -8 -42z m-645 5 c-12 -20 -14 -14 -5 12
4 9 9 14 11 11 3 -2 0 -13 -6 -23z m402 -38 c-15 -30 -29 -53 -31 -51 -4 5 46
106 53 106 3 0 -7 -25 -22 -55z m97 25 c-6 -11 -16 -20 -22 -20 -6 0 -3 9 7
20 10 11 20 20 22 20 2 0 -1 -9 -7 -20z m756 5 c-11 -8 -24 -15 -30 -15 -5 0
-1 7 10 15 10 8 24 14 29 14 6 0 1 -6 -9 -14z m-1412 -11 c4 -10 2 -13 -7 -9
-6 4 -5 1 3 -7 8 -7 16 -19 18 -27 2 -11 -2 -11 -22 2 -24 16 -25 16 -21 -3 2
-11 0 -18 -4 -15 -5 2 -8 -8 -8 -23 1 -16 7 -29 14 -29 9 0 10 4 2 13 -7 9 -6
12 6 10 8 -1 15 -6 14 -12 -3 -17 -22 -54 -28 -54 -14 1 -65 50 -58 56 3 4 14
1 24 -7 15 -12 16 -12 8 1 -16 25 -14 40 6 50 10 6 18 14 17 18 -2 6 23 52 28
52 1 0 5 -7 8 -16z m922 -30 c-8 -21 -15 -34 -15 -28 -1 15 20 76 25 71 2 -2
-2 -21 -10 -43z m-723 16 c-5 -20 -21 -36 -28 -28 -5 4 23 48 30 48 2 0 1 -9
-2 -20z m1432 -10 c-16 -11 -34 -20 -40 -20 -12 0 46 38 60 39 6 1 -3 -8 -20
-19z m30 -10 c-7 -11 -65 -43 -65 -36 0 4 62 45 68 46 2 0 0 -5 -3 -10z m10
-20 c-3 -5 0 -10 7 -10 7 0 4 -9 -9 -22 -19 -18 -24 -19 -38 -8 -14 12 -13 15
12 31 32 22 37 23 28 9z m-295 -14 c0 -2 3 -12 7 -22 3 -9 2 -15 -3 -12 -5 3
-25 -1 -44 -8 -31 -13 -32 -14 -7 -10 46 6 25 -17 -29 -31 -66 -17 -75 -16
-37 5 26 14 30 20 22 35 -9 14 -5 20 23 32 32 14 68 20 68 11z m-322 -16 c-14
-4 -32 -11 -40 -15 -7 -3 -4 1 6 9 11 9 29 16 40 15 17 -1 16 -2 -6 -9z m-491
-22 c-3 -8 -6 -5 -6 6 -1 11 2 17 5 13 3 -3 4 -12 1 -19z m1134 3 c31 16 45
-1 18 -22 -13 -10 -28 -19 -34 -18 -5 0 -1 7 10 15 19 15 19 15 -7 9 -16 -4
-28 -3 -28 2 0 15 14 25 18 14 3 -8 10 -8 23 0z m-1097 -39 c40 5 42 2 20 -30
-17 -25 -49 -31 -40 -7 4 10 -1 15 -14 15 -14 0 -20 7 -20 23 0 16 3 18 9 8 6
-9 21 -12 45 -9z m383 -12 c-10 -26 -16 -30 -47 -29 l-35 1 30 9 c29 8 28 8
-8 5 -53 -3 -41 16 19 31 27 6 50 12 51 12 1 1 -4 -12 -10 -29z m-258 -1 c-21
-13 -69 -11 -69 4 0 9 12 11 41 9 28 -3 37 -7 28 -13z m-292 -5 c-3 -3 -12 -4
-19 -1 -8 3 -5 6 6 6 11 1 17 -2 13 -5z m98 -13 c26 -6 31 -9 15 -9 -14 -1
-43 3 -65 7 -26 6 -31 9 -15 9 14 1 43 -3 65 -7z m625 -12 c0 -5 -15 -9 -32
-10 -18 -1 -44 -5 -58 -10 -17 -6 -7 -7 31 -3 l57 5 25 -45 25 -45 -22 -4
c-19 -4 -18 -4 4 -6 14 -1 32 -6 40 -11 10 -7 -21 -10 -97 -10 -112 0 -113 0
-119 25 -9 34 -2 39 64 46 l57 7 -60 -1 -60 -1 0 35 0 34 63 0 c34 0 62 4 62
8 0 5 5 5 10 2 6 -3 10 -10 10 -16z m67 15 c-3 -3 -12 -4 -19 -1 -8 3 -5 6 6
6 11 1 17 -2 13 -5z m-477 -25 c0 -5 -11 -9 -24 -9 -14 0 -28 -4 -31 -10 -3
-6 1 -7 10 -4 8 3 27 3 43 -2 l27 -8 -35 -6 -35 -7 33 -2 c32 -1 43 -15 20
-24 -9 -4 -7 -6 3 -6 13 -1 39 -38 39 -56 0 -3 -50 -5 -111 -5 l-111 0 7 27
c4 16 7 28 8 29 1 1 16 6 32 12 l30 10 -27 1 c-42 1 -33 21 10 22 29 2 31 3
10 6 -24 4 -26 7 -16 23 9 14 16 16 25 9 14 -12 73 -2 73 12 0 6 5 7 10 4 6
-3 10 -10 10 -16z m597 -5 c-3 -3 -12 -4 -19 -1 -8 3 -5 6 6 6 11 1 17 -2 13
-5z m-843 -16 c25 -1 23 -2 -14 -8 l-45 -7 38 -1 c45 -2 49 -17 6 -26 -58 -11
-79 -8 -79 14 0 12 7 20 18 21 15 0 14 2 -3 10 -16 7 -12 8 14 4 18 -3 48 -6
65 -7z m441 2 c-11 -5 -31 -8 -45 -8 -23 0 -22 1 5 8 42 11 65 11 40 0z m373
-27 c44 -6 58 -22 20 -24 -19 -1 -17 -3 7 -9 l30 -8 -32 -1 c-17 0 -43 -5 -57
-11 -24 -9 -28 -6 -47 32 l-21 41 29 -7 c15 -4 47 -9 71 -13z m-352 -15 c4 -5
-26 -8 -67 -7 -42 0 -66 4 -56 8 24 9 113 8 123 -1z m-453 -15 c-7 -2 -19 -2
-25 0 -7 3 -2 5 12 5 14 0 19 -2 13 -5z m-83 -12 c0 -5 18 -12 40 -16 22 -4
40 -11 40 -17 0 -6 -7 -7 -16 -4 -9 3 -31 6 -50 6 -27 0 -34 4 -34 20 0 11 5
20 10 20 6 0 10 -4 10 -9z m497 2 c-20 -2 -52 -2 -70 0 -17 2 0 4 38 4 39 0
53 -2 32 -4z m32 -29 c2 -2 -15 -4 -38 -4 -23 0 -51 -5 -62 -10 -16 -9 -19 -7
-19 10 0 20 3 21 58 14 31 -3 59 -8 61 -10z m94 -31 c-7 -2 -21 -2 -30 0 -10
3 -4 5 12 5 17 0 24 -2 18 -5z m105 0 c-16 -2 -40 -2 -55 0 -16 2 -3 4 27 4
30 0 43 -2 28 -4z m-685 -10 c-7 -2 -21 -2 -30 0 -10 3 -4 5 12 5 17 0 24 -2
18 -5z m341 -1 c5 -8 -235 -5 -243 3 -2 3 50 5 117 5 66 0 123 -3 126 -8z
m121 -2 c15 -6 8 -9 -27 -9 -26 -1 -50 4 -53 9 -8 12 52 12 80 0z m-677 -7
c-26 -2 -71 -2 -100 0 -29 2 -8 3 47 3 55 0 79 -1 53 -3z m780 0 c-10 -2 -28
-2 -40 0 -13 2 -5 4 17 4 22 1 32 -1 23 -4z m150 -10 c-21 -2 -55 -2 -75 0
-21 2 -4 4 37 4 41 0 58 -2 38 -4z m-400 -10 c-10 -2 -28 -2 -40 0 -13 2 -5 4
17 4 22 1 32 -1 23 -4z m470 -20 c-10 -2 -28 -2 -40 0 -13 2 -5 4 17 4 22 1
32 -1 23 -4z m-310 -50 c-21 -2 -57 -2 -80 0 -24 2 -7 4 37 4 44 0 63 -2 43
-4z"/>
<path d="M1857 4179 c7 -7 15 -10 18 -7 3 3 -2 9 -12 12 -14 6 -15 5 -6 -5z"/>
<path d="M2746 3979 c-8 -42 0 -50 9 -9 4 17 5 34 2 36 -2 3 -7 -10 -11 -27z"/>
<path d="M1966 4048 c-9 -12 -16 -32 -16 -43 0 -22 64 -104 74 -94 3 3 -10 24
-29 46 -40 47 -41 54 -19 88 20 31 11 33 -10 3z"/>
<path d="M2095 4050 c3 -5 8 -10 11 -10 2 0 4 5 4 10 0 6 -5 10 -11 10 -5 0
-7 -4 -4 -10z"/>
<path d="M3400 3940 c6 -11 13 -20 16 -20 2 0 0 9 -6 20 -6 11 -13 20 -16 20
-2 0 0 -9 6 -20z"/>
<path d="M3556 3833 c-6 -14 -5 -15 5 -6 7 7 10 15 7 18 -3 3 -9 -2 -12 -12z"/>
<path d="M3521 3773 c-7 -15 -26 -45 -44 -67 -22 -29 -24 -35 -8 -21 25 22 76
103 69 110 -3 3 -10 -7 -17 -22z"/>
<path d="M3485 3651 c-10 -21 -11 -29 -2 -27 20 3 36 16 48 39 7 15 3 12 -15
-8 -26 -31 -34 -28 -16 6 6 10 8 19 6 19 -3 0 -12 -13 -21 -29z"/>
<path d="M3499 3602 l-34 -37 35 30 c19 17 37 31 39 33 2 1 2 4 -1 7 -2 3 -20
-12 -39 -33z"/>
<path d="M2746 3573 c-8 -19 17 -43 42 -43 12 0 11 4 -4 21 -16 17 -16 22 -4
29 12 8 11 10 -6 10 -12 0 -25 -8 -28 -17z"/>
<path d="M2685 3570 c3 -5 14 -10 23 -10 15 0 15 2 2 10 -20 13 -33 13 -25 0z"/>
<path d="M2808 3573 c6 -2 18 -2 25 0 6 3 1 5 -13 5 -14 0 -19 -2 -12 -5z"/>
<path d="M2888 3553 c7 -3 16 -2 19 1 4 3 -2 6 -13 5 -11 0 -14 -3 -6 -6z"/>
<path d="M1420 3506 c0 -2 8 -10 18 -17 15 -13 16 -12 3 4 -13 16 -21 21 -21
13z"/>
<path d="M3102 3465 c-17 -37 -14 -45 4 -12 9 16 14 31 11 33 -2 2 -9 -7 -15
-21z"/>
<path d="M3873 3249 c-29 -17 -53 -32 -53 -35 0 -10 105 40 115 56 11 17 -8
11 -62 -21z"/>
<path d="M3910 3183 l-32 -46 34 29 c18 16 34 37 34 47 0 9 -1 17 -2 17 -2 0
-17 -21 -34 -47z"/>
<path d="M3810 3180 c-9 -6 -10 -10 -3 -10 6 0 15 5 18 10 8 12 4 12 -15 0z"/>
<path d="M2702 3270 c0 -14 2 -19 5 -12 2 6 2 18 0 25 -3 6 -5 1 -5 -13z"/>
<path d="M2762 3230 c0 -14 2 -19 5 -12 2 6 2 18 0 25 -3 6 -5 1 -5 -13z"/>
<path d="M2837 3243 c-4 -3 -7 -18 -6 -32 1 -26 1 -25 10 3 9 31 7 41 -4 29z"/>
<path d="M2891 3204 c0 -11 3 -14 6 -6 3 7 2 16 -1 19 -3 4 -6 -2 -5 -13z"/>
<path d="M2914 3196 c-3 -8 -4 -25 -2 -38 3 -17 5 -13 9 15 5 38 2 47 -7 23z"/>
<path d="M2881 3164 c0 -11 3 -14 6 -6 3 7 2 16 -1 19 -3 4 -6 -2 -5 -13z"/>
<path d="M2941 3154 c0 -11 3 -14 6 -6 3 7 2 16 -1 19 -3 4 -6 -2 -5 -13z"/>
<path d="M2931 3123 c0 -6 -4 -20 -7 -30 -5 -14 -4 -15 5 -7 7 7 11 20 8 30
-3 11 -5 14 -6 7z"/>
<path d="M3040 3087 c0 -9 6 -16 13 -14 7 1 11 -7 10 -23 -2 -21 -1 -22 5 -6
7 16 12 12 37 -30 16 -27 37 -65 47 -84 9 -19 17 -28 18 -19 0 21 -65 128
-101 164 -23 23 -29 26 -29 12z"/>
<path d="M3330 2536 c0 -2 11 -6 25 -8 14 -3 25 -1 25 3 0 5 -11 9 -25 9 -14
0 -25 -2 -25 -4z"/>
<path d="M3338 2503 c6 -2 18 -2 25 0 6 3 1 5 -13 5 -14 0 -19 -2 -12 -5z"/>
<path d="M3266 2404 c-11 -28 -6 -34 12 -16 11 9 17 20 15 25 -7 12 -21 8 -27
-9z"/>
<path d="M3340 2210 c19 -11 42 -19 50 -19 8 0 -5 8 -29 19 -55 25 -67 25 -21
0z"/>
<path d="M3398 2223 c7 -3 16 -2 19 1 4 3 -2 6 -13 5 -11 0 -14 -3 -6 -6z"/>
<path d="M2348 3293 c7 -3 16 -2 19 1 4 3 -2 6 -13 5 -11 0 -14 -3 -6 -6z"/>
<path d="M1985 3240 c-3 -5 -2 -10 4 -10 5 0 13 5 16 10 3 6 2 10 -4 10 -5 0
-13 -4 -16 -10z"/>
<path d="M2034 3188 l-19 -23 23 19 c21 18 27 26 19 26 -2 0 -12 -10 -23 -22z"/>
<path d="M4302 3050 c0 -14 2 -19 5 -12 2 6 2 18 0 25 -3 6 -5 1 -5 -13z"/>
<path d="M3440 2950 c-13 -9 -13 -10 0 -9 8 0 24 4 35 9 l20 9 -20 0 c-11 0
-27 -4 -35 -9z"/>
<path d="M4015 2928 c-27 -16 -39 -26 -25 -22 24 6 80 41 80 50 0 5 4 7 -55
-28z"/>
<path d="M1656 2963 c-6 -14 -5 -15 5 -6 7 7 10 15 7 18 -3 3 -9 -2 -12 -12z"/>
<path d="M2440 2989 c-34 -14 -127 -87 -134 -106 -3 -8 16 5 43 29 27 25 74
54 103 66 29 11 44 21 33 21 -11 0 -31 -5 -45 -10z"/>
<path d="M2422 2881 c-33 -22 -72 -57 -86 -78 -38 -56 -32 -63 9 -9 20 25 64
64 97 86 34 22 57 40 52 40 -6 0 -38 -18 -72 -39z"/>
<path d="M2578 2893 c7 -3 16 -2 19 1 4 3 -2 6 -13 5 -11 0 -14 -3 -6 -6z"/>
<path d="M2455 2870 c-3 -6 1 -7 9 -4 18 7 21 14 7 14 -6 0 -13 -4 -16 -10z"/>
<path d="M2720 2859 c13 -6 39 -21 58 -36 18 -14 36 -23 39 -20 8 8 -88 67
-106 66 -9 0 -5 -5 9 -10z"/>
<path d="M2338 2848 c-15 -13 -62 -78 -56 -78 2 0 21 20 41 45 39 46 43 55 15
33z"/>
<path d="M2680 2762 c0 -6 4 -13 10 -17 5 -3 7 -11 4 -18 -2 -7 11 -28 31 -47
49 -47 45 -17 -5 44 -22 26 -40 43 -40 38z m50 -63 c15 -28 5 -23 -15 7 -9 15
-12 23 -6 20 6 -4 16 -16 21 -27z"/>
<path d="M2256 2741 c-10 -11 -16 -25 -15 -30 2 -6 12 3 21 19 20 35 18 38 -6
11z"/>
<path d="M2241 2549 c1 -52 5 -107 9 -124 4 -16 5 24 3 90 -3 66 -7 122 -9
124 -2 2 -3 -38 -3 -90z"/>
<path d="M2212 2545 c0 -54 5 -106 14 -130 9 -26 11 -29 7 -10 -3 17 -9 75
-13 130 l-7 100 -1 -90z"/>
<path d="M2283 2565 c0 -27 2 -38 4 -22 2 15 2 37 0 50 -2 12 -4 0 -4 -28z"/>
<path d="M3001 2358 c-35 -62 -92 -120 -175 -177 -70 -48 -65 -54 8 -10 105
64 169 130 204 212 20 47 -5 30 -37 -25z"/>
<path d="M3070 2323 c-19 -42 -46 -91 -60 -107 -41 -49 -55 -74 -20 -36 44 48
77 101 101 161 31 80 16 67 -21 -18z"/>
<path d="M2261 2374 c0 -11 3 -14 6 -6 3 7 2 16 -1 19 -3 4 -6 -2 -5 -13z"/>
<path d="M2290 2333 c0 -21 56 -95 96 -126 44 -35 72 -48 60 -28 -3 4 13 5 37
0 50 -10 213 -12 204 -3 -3 4 -53 8 -109 10 -57 2 -115 5 -129 6 -37 4 -94 52
-125 103 -25 43 -34 53 -34 38z"/>
<path d="M2280 2280 c0 -18 107 -118 151 -140 55 -29 159 -54 171 -42 6 6 -5
11 -29 15 -80 11 -150 46 -222 113 -39 36 -71 61 -71 54z"/>
<path d="M2950 2195 c-30 -30 -50 -55 -44 -55 9 0 65 55 93 93 25 32 6 17 -49
-38z"/>
<path d="M2495 2200 c11 -5 27 -9 35 -9 13 -1 13 0 0 9 -8 5 -24 9 -35 9 l-20
0 20 -9z"/>
<path d="M2713 2173 c9 -2 23 -2 30 0 6 3 -1 5 -18 5 -16 0 -22 -2 -12 -5z"/>
<path d="M2530 2149 c25 -4 56 -7 70 -7 l25 0 -25 8 c-14 4 -45 8 -70 8 l-45
-1 45 -8z"/>
<path d="M2750 2083 c-25 -9 -40 -18 -34 -20 6 -2 31 5 55 16 53 24 41 26 -21
4z"/>
<path d="M997 2818 c15 -17 78 -54 70 -40 -4 5 -24 20 -44 32 -20 12 -32 16
-26 8z"/>
<path d="M4078 2705 c-3 -3 -25 -9 -49 -14 -35 -7 -38 -9 -14 -9 28 -1 103 25
79 27 -6 1 -13 -1 -16 -4z"/>
<path d="M4050 2670 c-19 -11 -31 -19 -27 -20 12 0 77 28 77 34 0 10 -14 6
-50 -14z"/>
<path d="M4015 2470 c3 -5 8 -10 11 -10 2 0 4 5 4 10 0 6 -5 10 -11 10 -5 0
-7 -4 -4 -10z"/>
<path d="M968 2413 c7 -3 16 -2 19 1 4 3 -2 6 -13 5 -11 0 -14 -3 -6 -6z"/>
<path d="M3769 1593 c-13 -16 -12 -17 4 -4 16 13 21 21 13 21 -2 0 -10 -8 -17
-17z"/>
<path d="M1941 1396 c2 -2 15 -9 29 -15 24 -11 24 -11 6 3 -16 13 -49 24 -35
12z"/>
<path d="M1551 1542 c8 -12 15 -18 17 -12 2 6 8 8 12 5 5 -3 11 -1 14 4 4 5
-2 8 -11 6 -10 -1 -24 3 -32 9 -12 9 -12 8 0 -12z"/>
<path d="M3829 1513 c-13 -16 -12 -17 4 -4 16 13 21 21 13 21 -2 0 -10 -8 -17
-17z"/>
<path d="M3859 1514 c-10 -12 -9 -13 6 -8 14 6 16 4 10 -6 -5 -8 -4 -11 2 -7
6 4 14 0 17 -9 3 -8 11 -12 17 -8 9 5 7 11 -4 19 -9 7 -14 14 -11 17 2 3 -2 8
-10 11 -8 3 -20 -1 -27 -9z"/>
<path d="M3515 1375 c-16 -14 -25 -25 -19 -25 6 0 21 11 34 25 30 32 24 31
-15 0z"/>
<path d="M3218 1253 c7 -3 16 -2 19 1 4 3 -2 6 -13 5 -11 0 -14 -3 -6 -6z"/>
<path d="M2598 1033 c7 -3 16 -2 19 1 4 3 -2 6 -13 5 -11 0 -14 -3 -6 -6z"/>
<path d="M2318 1093 c6 -2 18 -2 25 0 6 3 1 5 -13 5 -14 0 -19 -2 -12 -5z"/>
<path d="M3740 3448 c-43 -50 -48 -58 -23 -40 18 13 35 28 39 34 4 7 9 6 14
-2 11 -17 43 37 33 55 -7 12 -21 1 -63 -47z m50 21 c-7 -11 -14 -18 -17 -15
-3 3 0 12 7 21 18 21 23 19 10 -6z"/>
<path d="M3820 3480 c-6 -12 -9 -24 -7 -27 3 -2 11 5 17 17 6 12 9 24 7 27 -3
2 -11 -5 -17 -17z"/>
<path d="M2041 2373 c-2 -24 57 -162 88 -207 43 -62 48 -59 8 5 -17 28 -46 88
-64 133 -17 44 -32 76 -32 69z"/>
<path d="M2028 1213 c7 -3 16 -2 19 1 4 3 -2 6 -13 5 -11 0 -14 -3 -6 -6z"/>
<path d="M2150 1210 c0 -5 5 -10 11 -10 5 0 7 5 4 10 -3 6 -8 10 -11 10 -2 0
-4 -4 -4 -10z"/>
<path d="M1945 1150 c-3 -5 1 -10 10 -10 9 0 13 5 10 10 -3 6 -8 10 -10 10 -2
0 -7 -4 -10 -10z"/>
<path d="M2108 1153 c7 -3 16 -2 19 1 4 3 -2 6 -13 5 -11 0 -14 -3 -6 -6z"/>
<path d="M1763 1133 c15 -2 39 -2 55 0 15 2 2 4 -28 4 -30 0 -43 -2 -27 -4z"/>
<path d="M2168 1133 c7 -3 16 -2 19 1 4 3 -2 6 -13 5 -11 0 -14 -3 -6 -6z"/>
<path d="M2208 1133 c6 -2 18 -2 25 0 6 3 1 5 -13 5 -14 0 -19 -2 -12 -5z"/>
<path d="M3651 1101 c-10 -6 -10 -10 -2 -16 7 -4 18 -2 25 5 9 6 15 7 18 1 1
-5 15 -7 30 -4 15 3 26 9 23 13 -6 10 -78 11 -94 1z"/>
<path d="M3808 1103 c7 -3 16 -2 19 1 4 3 -2 6 -13 5 -11 0 -14 -3 -6 -6z"/>
<path d="M3580 1090 c0 -12 8 -12 35 0 18 8 17 9 -7 9 -16 1 -28 -3 -28 -9z"/>
<path d="M2005 1080 c-3 -5 3 -10 14 -10 12 0 21 5 21 10 0 6 -6 10 -14 10 -8
0 -18 -4 -21 -10z"/>
<path d="M2065 1080 c-3 -5 1 -10 9 -10 9 0 16 5 16 10 0 6 -4 10 -9 10 -6 0
-13 -4 -16 -10z"/>
<path d="M2120 1080 c8 -5 22 -9 30 -9 10 0 8 3 -5 9 -27 12 -43 12 -25 0z"/>
<path d="M3523 1083 c9 -2 23 -2 30 0 6 3 -1 5 -18 5 -16 0 -22 -2 -12 -5z"/>
<path d="M3658 1053 c12 -2 30 -2 40 0 9 3 -1 5 -23 4 -22 0 -30 -2 -17 -4z"/>
<path d="M3775 1050 c3 -5 8 -10 11 -10 2 0 4 5 4 10 0 6 -5 10 -11 10 -5 0
-7 -4 -4 -10z"/>
<path d="M3888 1053 c7 -3 16 -2 19 1 4 3 -2 6 -13 5 -11 0 -14 -3 -6 -6z"/>
<path d="M3408 1043 c7 -3 16 -2 19 1 4 3 -2 6 -13 5 -11 0 -14 -3 -6 -6z"/>
<path d="M3548 1043 c7 -3 16 -2 19 1 4 3 -2 6 -13 5 -11 0 -14 -3 -6 -6z"/>
<path d="M1623 1033 c20 -2 54 -2 75 0 20 2 3 4 -38 4 -41 0 -58 -2 -37 -4z"/>
<path d="M3553 1023 c9 -2 23 -2 30 0 6 3 -1 5 -18 5 -16 0 -22 -2 -12 -5z"/>
<path d="M3618 1023 c7 -3 16 -2 19 1 4 3 -2 6 -13 5 -11 0 -14 -3 -6 -6z"/>
<path d="M3478 1013 c7 -3 16 -2 19 1 4 3 -2 6 -13 5 -11 0 -14 -3 -6 -6z"/>
<path d="M3948 1003 c6 -2 18 -2 25 0 6 3 1 5 -13 5 -14 0 -19 -2 -12 -5z"/>
<path d="M1563 993 c15 -2 39 -2 55 0 15 2 2 4 -28 4 -30 0 -43 -2 -27 -4z"/>
<path d="M3548 988 c8 -8 23 -8 54 -1 l43 11 -54 1 c-42 1 -52 -2 -43 -11z"/>
<path d="M3678 993 c7 -3 16 -2 19 1 4 3 -2 6 -13 5 -11 0 -14 -3 -6 -6z"/>
<path d="M3823 990 c9 -6 15 -15 12 -20 -3 -4 2 -11 11 -14 15 -6 15 -4 2 16
-8 12 -21 24 -29 26 -8 2 -6 -2 4 -8z"/>
<path d="M1418 983 c12 -2 30 -2 40 0 9 3 -1 5 -23 4 -22 0 -30 -2 -17 -4z"/>
<path d="M1723 983 c9 -2 23 -2 30 0 6 3 -1 5 -18 5 -16 0 -22 -2 -12 -5z"/>
<path d="M3788 973 c7 -3 16 -2 19 1 4 3 -2 6 -13 5 -11 0 -14 -3 -6 -6z"/>
<path d="M1738 963 c7 -3 16 -2 19 1 4 3 -2 6 -13 5 -11 0 -14 -3 -6 -6z"/>
<path d="M3340 962 c0 -4 -20 -6 -45 -4 -49 4 -62 -12 -17 -21 37 -8 115 3
124 17 5 8 8 7 8 -1 0 -15 32 -17 46 -3 5 5 68 11 139 13 107 2 96 3 -62 5
-106 1 -193 -1 -193 -6z"/>
<path d="M2803 938 c-2 -5 49 -7 114 -7 128 2 120 7 -20 11 -49 2 -91 0 -94
-4z"/>
<path d="M3580 930 c0 -5 7 -10 15 -10 8 0 15 5 15 10 0 6 -7 10 -15 10 -8 0
-15 -4 -15 -10z"/>
<path d="M1462 919 c11 -6 29 -6 50 0 32 9 31 9 -17 10 -38 0 -46 -2 -33 -10z"/>
<path d="M1973 873 c15 -2 37 -2 50 0 12 2 0 4 -28 4 -27 0 -38 -2 -22 -4z"/>
<path d="M2141 876 c12 -10 59 -15 59 -6 0 5 -14 10 -32 10 -17 0 -29 -2 -27
-4z"/>
<path d="M2320 860 c100 -8 346 -13 339 -6 -2 2 -101 6 -219 8 -136 4 -180 3
-120 -2z"/>
<path d="M2993 863 c15 -2 39 -2 55 0 15 2 2 4 -28 4 -30 0 -43 -2 -27 -4z"/>
<path d="M3770 859 c0 -5 5 -7 10 -4 6 3 10 8 10 11 0 2 -4 4 -10 4 -5 0 -10
-5 -10 -11z"/>
<path d="M2768 853 c34 -2 90 -2 125 0 34 2 6 3 -63 3 -69 0 -97 -1 -62 -3z"/>
<path d="M3273 853 c15 -2 39 -2 55 0 15 2 2 4 -28 4 -30 0 -43 -2 -27 -4z"/>
<path d="M3440 850 c0 -5 9 -10 20 -10 11 0 20 5 20 10 0 6 -9 10 -20 10 -11
0 -20 -4 -20 -10z"/>
<path d="M3535 850 c-3 -5 3 -10 14 -10 12 0 21 5 21 10 0 6 -6 10 -14 10 -8
0 -18 -4 -21 -10z"/>
<path d="M3625 850 c-3 -5 -1 -10 4 -10 6 0 11 5 11 10 0 6 -2 10 -4 10 -3 0
-8 -4 -11 -10z"/>
<path d="M3703 853 c9 -2 23 -2 30 0 6 3 -1 5 -18 5 -16 0 -22 -2 -12 -5z"/>
<path d="M3808 853 c7 -3 16 -2 19 1 4 3 -2 6 -13 5 -11 0 -14 -3 -6 -6z"/>
<path d="M3388 843 c7 -3 16 -2 19 1 4 3 -2 6 -13 5 -11 0 -14 -3 -6 -6z"/>
<path d="M1790 830 c0 -5 24 -10 53 -10 37 0 48 3 37 10 -20 13 -90 13 -90 0z"/>
<path d="M1518 823 c7 -3 16 -2 19 1 4 3 -2 6 -13 5 -11 0 -14 -3 -6 -6z"/>
<path d="M1933 823 c15 -2 37 -2 50 0 12 2 0 4 -28 4 -27 0 -38 -2 -22 -4z"/>
<path d="M2028 823 c6 -2 18 -2 25 0 6 3 1 5 -13 5 -14 0 -19 -2 -12 -5z"/>
<path d="M2095 820 c-8 -13 5 -13 25 0 13 8 13 10 -2 10 -9 0 -20 -4 -23 -10z"/>
<path d="M2420 820 c14 -4 19 -8 13 -9 -7 -1 -13 -6 -13 -12 0 -10 48 -4 60 7
9 10 -25 24 -55 23 -29 -1 -29 -1 -5 -9z"/>
<path d="M2500 815 c0 -9 9 -15 25 -15 16 0 25 6 25 15 0 9 -9 15 -25 15 -16
0 -25 -6 -25 -15z"/>
<path d="M2575 820 c-4 -6 12 -10 42 -9 39 1 43 3 23 9 -36 11 -58 11 -65 0z"/>
<path d="M2848 823 c-16 -2 -28 -11 -28 -18 0 -12 5 -12 28 -3 15 6 44 10 65
9 20 -1 37 3 37 9 0 10 -47 11 -102 3z"/>
<path d="M3042 821 c-12 -7 230 -4 253 4 6 2 -46 4 -115 4 -69 0 -131 -3 -138
-8z"/>
<path d="M1623 813 c15 -2 39 -2 55 0 15 2 2 4 -28 4 -30 0 -43 -2 -27 -4z"/>
<path d="M2233 813 c15 -2 39 -2 55 0 15 2 2 4 -28 4 -30 0 -43 -2 -27 -4z"/>
<path d="M2690 810 c-11 -7 -6 -10 22 -10 20 0 40 5 43 10 8 13 -45 13 -65 0z"/>
<path d="M3638 803 c7 -3 16 -2 19 1 4 3 -2 6 -13 5 -11 0 -14 -3 -6 -6z"/>
<path d="M2603 793 c9 -2 23 -2 30 0 6 3 -1 5 -18 5 -16 0 -22 -2 -12 -5z"/>
<path d="M3268 793 c6 -2 18 -2 25 0 6 3 1 5 -13 5 -14 0 -19 -2 -12 -5z"/>
<path d="M3333 793 c9 -2 23 -2 30 0 6 3 -1 5 -18 5 -16 0 -22 -2 -12 -5z"/>
<path d="M3380 789 c0 -5 5 -7 10 -4 6 3 10 8 10 11 0 2 -4 4 -10 4 -5 0 -10
-5 -10 -11z"/>
<path d="M3428 793 c7 -3 16 -2 19 1 4 3 -2 6 -13 5 -11 0 -14 -3 -6 -6z"/>
<path d="M3068 783 c7 -3 16 -2 19 1 4 3 -2 6 -13 5 -11 0 -14 -3 -6 -6z"/>
<path d="M1747 773 c18 -2 50 -2 70 0 21 2 7 4 -32 4 -38 0 -55 -2 -38 -4z"/>
<path d="M1895 770 c-3 -5 1 -10 9 -10 9 0 16 5 16 10 0 6 -4 10 -9 10 -6 0
-13 -4 -16 -10z"/>
<path d="M1943 774 c7 -7 188 -6 196 1 2 3 -42 5 -99 5 -57 0 -101 -3 -97 -6z"/>
<path d="M2184 768 c-3 -4 11 -8 30 -8 20 0 36 2 36 4 0 8 -61 12 -66 4z"/>
<path d="M2288 773 c7 -3 16 -2 19 1 4 3 -2 6 -13 5 -11 0 -14 -3 -6 -6z"/>
<path d="M2714 768 c-6 -10 255 -1 266 9 2 2 -55 3 -128 2 -73 -1 -135 -6
-138 -11z"/>
<path d="M2363 763 c15 -2 37 -2 50 0 12 2 0 4 -28 4 -27 0 -38 -2 -22 -4z"/>
<path d="M2453 763 c9 -2 25 -2 35 0 9 3 1 5 -18 5 -19 0 -27 -2 -17 -5z"/>
<path d="M2563 763 c26 -2 67 -2 90 0 23 2 2 3 -48 3 -49 0 -68 -1 -42 -3z"/>
<path d="M2025 730 c3 -5 24 -10 46 -10 21 0 39 5 39 10 0 6 -21 10 -46 10
-27 0 -43 -4 -39 -10z"/>
<path d="M2140 730 c0 -6 7 -10 15 -10 8 0 15 2 15 4 0 2 -7 6 -15 10 -8 3
-15 1 -15 -4z"/>
<path d="M2235 730 c-3 -5 3 -10 15 -10 12 0 18 5 15 10 -3 6 -10 10 -15 10
-5 0 -12 -4 -15 -10z"/>
<path d="M2535 730 c-3 -5 1 -10 9 -10 8 0 18 5 21 10 3 6 -1 10 -9 10 -8 0
-18 -4 -21 -10z"/>
<path d="M2808 733 c6 -2 18 -2 25 0 6 3 1 5 -13 5 -14 0 -19 -2 -12 -5z"/>
<path d="M3255 730 c-4 -6 9 -10 31 -10 42 0 42 4 2 14 -15 3 -30 2 -33 -4z"/>
<path d="M3410 730 c0 -5 14 -7 33 -3 45 8 47 13 4 13 -20 0 -37 -4 -37 -10z"/>
<path d="M1958 723 c6 -2 18 -2 25 0 6 3 1 5 -13 5 -14 0 -19 -2 -12 -5z"/>
<path d="M2908 723 c7 -3 16 -2 19 1 4 3 -2 6 -13 5 -11 0 -14 -3 -6 -6z"/>
<path d="M3008 723 c7 -3 16 -2 19 1 4 3 -2 6 -13 5 -11 0 -14 -3 -6 -6z"/>
<path d="M3088 723 c7 -3 16 -2 19 1 4 3 -2 6 -13 5 -11 0 -14 -3 -6 -6z"/>
<path d="M3193 723 c9 -2 23 -2 30 0 6 3 -1 5 -18 5 -16 0 -22 -2 -12 -5z"/>
<path d="M1728 683 c7 -3 16 -2 19 1 4 3 -2 6 -13 5 -11 0 -14 -3 -6 -6z"/>
<path d="M1890 679 c0 -5 5 -7 10 -4 6 3 10 8 10 11 0 2 -4 4 -10 4 -5 0 -10
-5 -10 -11z"/>
<path d="M2140 680 c0 -5 7 -10 15 -10 8 0 15 5 15 10 0 6 -7 10 -15 10 -8 0
-15 -4 -15 -10z"/>
<path d="M2200 680 c0 -5 5 -10 11 -10 5 0 7 5 4 10 -3 6 -8 10 -11 10 -2 0
-4 -4 -4 -10z"/>
<path d="M2250 679 c0 -5 5 -7 10 -4 6 3 10 8 10 11 0 2 -4 4 -10 4 -5 0 -10
-5 -10 -11z"/>
<path d="M3280 686 c0 -2 7 -6 15 -10 8 -3 15 -1 15 4 0 6 -7 10 -15 10 -8 0
-15 -2 -15 -4z"/>
<path d="M3608 683 c7 -3 16 -2 19 1 4 3 -2 6 -13 5 -11 0 -14 -3 -6 -6z"/>
<path d="M2448 673 c6 -2 18 -2 25 0 6 3 1 5 -13 5 -14 0 -19 -2 -12 -5z"/>
<path d="M2500 676 c0 -9 30 -14 35 -6 4 6 -3 10 -14 10 -12 0 -21 -2 -21 -4z"/>
<path d="M2638 673 c7 -3 16 -2 19 1 4 3 -2 6 -13 5 -11 0 -14 -3 -6 -6z"/>
<path d="M2698 673 c6 -2 18 -2 25 0 6 3 1 5 -13 5 -14 0 -19 -2 -12 -5z"/>
<path d="M2863 673 c9 -2 23 -2 30 0 6 3 -1 5 -18 5 -16 0 -22 -2 -12 -5z"/>
<path d="M2788 663 c7 -3 16 -2 19 1 4 3 -2 6 -13 5 -11 0 -14 -3 -6 -6z"/>
<path d="M1824 628 c-3 -4 11 -8 30 -8 20 0 36 2 36 4 0 8 -61 12 -66 4z"/>
<path d="M2208 613 c6 -2 18 -2 25 0 6 3 1 5 -13 5 -14 0 -19 -2 -12 -5z"/>
<path d="M2098 553 c7 -3 16 -2 19 1 4 3 -2 6 -13 5 -11 0 -14 -3 -6 -6z"/>
<path d="M2298 543 c6 -2 18 -2 25 0 6 3 1 5 -13 5 -14 0 -19 -2 -12 -5z"/>
</g>
</svg>
